<svg id="Layer_1" data-name="Layer 1" xmlns="http://www.w3.org/2000/svg" viewBox="0 0 905 905"><defs><style>.cls-1{fill:#fff;}.cls-2{fill:#fb565d;}.cls-3{fill:#f05e96;}.cls-4{fill:#28ac53;}.cls-5{fill:#b27bff;}.cls-6{fill:#fab62f;}.cls-7{fill:#00a8a4;}.cls-8{fill:#4b96ff;}</style></defs><title>Artboard 1</title><g id="new-hexes-and-icons"><g id="Desktop-HD-Copy-16"><g id="garage-method-wheel-1-outer-ring"><g id="outer-ring"><g id="co-create--arrow"><path id="Combined-Shape" d="M246,49.68A450.37,450.37,0,0,1,452.29,0C702.09,0,904.58,202.5,904.58,452.29V453l-32.11,19.36-35.09-19.58C837.29,240.51,665.2,68.49,452.94,68.49a382.84,382.84,0,0,0-171.79,40.42l1.2-36.74Z"/><g id="co-create"><path id="Co-create-2" data-name="Co-create" class="cls-1" d="M580.34,70.18a14.6,14.6,0,0,1-4.9-2.74,11.07,11.07,0,0,1-3-4.21,13.6,13.6,0,0,1-.93-5.56,22.82,22.82,0,0,1,1.35-6.79A23.71,23.71,0,0,1,576,44.61a14.21,14.21,0,0,1,4.2-4,11.41,11.41,0,0,1,5-1.59,13.79,13.79,0,0,1,5.57.79,12.54,12.54,0,0,1,6,3.93,12.2,12.2,0,0,1,2.41,6.51l-5.61.89a7.05,7.05,0,0,0-1-3.88,6.23,6.23,0,0,0-3.49-2.54,6.56,6.56,0,0,0-5.66.4,9.17,9.17,0,0,0-3.85,5.25L578,55a9,9,0,0,0-.19,6.49A6.66,6.66,0,0,0,582,65.27a6.37,6.37,0,0,0,4.51.05A8.19,8.19,0,0,0,590,62.79L593.56,67a13.64,13.64,0,0,1-6,3.64A12,12,0,0,1,580.34,70.18Zm22.85,7.92a11.26,11.26,0,0,1-3.82-2.45,9.25,9.25,0,0,1-2.21-3.53,11.16,11.16,0,0,1-.56-4.37,15.74,15.74,0,0,1,1.19-5,15.54,15.54,0,0,1,2.58-4.37,11,11,0,0,1,3.42-2.71,9.37,9.37,0,0,1,4-1,11.26,11.26,0,0,1,4.45.89,11.42,11.42,0,0,1,3.84,2.46,9.33,9.33,0,0,1,2.24,3.52,11,11,0,0,1,.57,4.33,15.54,15.54,0,0,1-1.18,4.93,15.74,15.74,0,0,1-2.59,4.39A11.16,11.16,0,0,1,611.73,78a9.21,9.21,0,0,1-4.06,1A11.42,11.42,0,0,1,603.19,78.1Zm1.71-4.24a4.63,4.63,0,0,0,3.81.05,5.71,5.71,0,0,0,2.71-3.26l1.61-4a5.64,5.64,0,0,0,.3-4.19,4.63,4.63,0,0,0-2.78-2.61,4.57,4.57,0,0,0-3.77,0,5.64,5.64,0,0,0-2.69,3.22l-1.61,4a5.71,5.71,0,0,0-.32,4.23A4.57,4.57,0,0,0,604.9,73.86Zm16,1.79,2.38-5.11,11.51,5.37L632.38,81Zm20.39,20.08a11.67,11.67,0,0,1-3.64-2.89,8.82,8.82,0,0,1-1.81-3.73,11,11,0,0,1,0-4.36A16.65,16.65,0,0,1,637.52,80a16.43,16.43,0,0,1,3-4.1,10.79,10.79,0,0,1,3.61-2.38,8.92,8.92,0,0,1,4.1-.56,11.67,11.67,0,0,1,4.43,1.4A10.09,10.09,0,0,1,657,78.42a8.72,8.72,0,0,1,.9,5.36l-5.1-.35a4.83,4.83,0,0,0-.18-2.83,4.32,4.32,0,0,0-2.16-2.23,4.25,4.25,0,0,0-3.86-.35A6.25,6.25,0,0,0,643.74,81l-2,3.72a6.15,6.15,0,0,0-.81,4,4.28,4.28,0,0,0,2.46,3,4.43,4.43,0,0,0,3.27.56,7.15,7.15,0,0,0,2.75-1.48l2.86,3.89A9.1,9.1,0,0,1,647,97.07,10.27,10.27,0,0,1,641.26,95.73Zm12,6.05,11.24-20.27,5,2.76-2.32,4.19.19.11a7.39,7.39,0,0,1,1.47-1.24,5.52,5.52,0,0,1,1.81-.75,5.85,5.85,0,0,1,2.09-.06,6.74,6.74,0,0,1,2.31.82l1.09.6-2.6,4.7-1.55-.86a8.91,8.91,0,0,0-4.21-1.37,2.93,2.93,0,0,0-2.62,1.7l-6.89,12.43Zm21.09,12.83a11.57,11.57,0,0,1-3.33-3.29,9.51,9.51,0,0,1-1.47-3.94,10.92,10.92,0,0,1,.35-4.37,17.22,17.22,0,0,1,5.58-8.31,10.87,10.87,0,0,1,3.87-2,9.35,9.35,0,0,1,4.16-.14,11.29,11.29,0,0,1,4.24,1.81,11,11,0,0,1,3.38,3.4,9.06,9.06,0,0,1,1.31,3.94,10.93,10.93,0,0,1-.47,4.15,15.36,15.36,0,0,1-2,4.1l-1,1.55-12.77-8.62-.32.48a5.74,5.74,0,0,0-1.09,4.16,5.48,5.48,0,0,0,2.64,3.63,6.25,6.25,0,0,0,3.39,1.21,10,10,0,0,0,3.27-.52l.63,4.55a9.53,9.53,0,0,1-5,.42A13.54,13.54,0,0,1,674.34,114.61Zm10.85-16.26a4.55,4.55,0,0,0-3.83-.76,5.69,5.69,0,0,0-3.29,2.49l-.2.29,7.88,5.31.22-.33a6.08,6.08,0,0,0,1.2-3.88A4.07,4.07,0,0,0,685.18,98.36Zm15.77,35.09a4,4,0,0,1-1.7-2.65,5,5,0,0,1,.67-3.14l-.21-.16a5.44,5.44,0,0,1-3.92,1.3,8,8,0,0,1-4.19-1.74,7.49,7.49,0,0,1-3.24-4.78,6.63,6.63,0,0,1,1.47-5.12,6,6,0,0,1,5.28-2.72q3.11.15,6.91,3l3.16,2.38,1-1.35a4.19,4.19,0,0,0,1-3,4.38,4.38,0,0,0-2-2.83,5.45,5.45,0,0,0-3.09-1.25,8.55,8.55,0,0,0-2.89.41l-.88-4.44a9.78,9.78,0,0,1,4.67-.51,11.3,11.3,0,0,1,5.24,2.42q3.76,2.83,4.43,6a7.7,7.7,0,0,1-1.74,6.36l-6.57,8.72,1.84,1.39-2.73,3.62Zm-5.88-9a5.94,5.94,0,0,0,3.1,1.28,2.76,2.76,0,0,0,2.56-1.18l1.84-2.45-2.91-2.19q-3.55-2.67-5.26-.4l-.45.6a2.47,2.47,0,0,0-.54,2.23A4.24,4.24,0,0,0,695.07,124.4Zm16.65,18.25a6,6,0,0,1-2.57-4,5.92,5.92,0,0,1,1.49-4.39l7.87-10.08-2.69-2.1,2.76-3.53,1.4,1.09a2.12,2.12,0,0,0,1.75.61,2.9,2.9,0,0,0,1.47-1.13l2.43-3.11,4,3.14-3.91,5,3.74,2.92-2.76,3.53L723,127.73l-8.72,11.16,3.46,2.71-2.79,3.57Zm13.69,11.73a11.57,11.57,0,0,1-2.77-3.77,9.51,9.51,0,0,1-.83-4.12,10.92,10.92,0,0,1,1-4.26,17.22,17.22,0,0,1,6.81-7.34,10.87,10.87,0,0,1,4.13-1.34,9.35,9.35,0,0,1,4.13.52,11.29,11.29,0,0,1,3.9,2.46,11,11,0,0,1,2.81,3.89,9.06,9.06,0,0,1,.68,4.09,10.93,10.93,0,0,1-1.12,4,15.36,15.36,0,0,1-2.6,3.73l-1.27,1.36L729,143.14l-.39.42a5.74,5.74,0,0,0-1.73,3.94,5.48,5.48,0,0,0,2,4,6.25,6.25,0,0,0,3.15,1.73,10,10,0,0,0,3.31,0l-.09,4.59a9.53,9.53,0,0,1-5-.36A13.54,13.54,0,0,1,725.41,154.38ZM739,140a4.55,4.55,0,0,0-3.66-1.35,5.69,5.69,0,0,0-3.64,1.95l-.24.26,6.95,6.48.27-.29a6.08,6.08,0,0,0,1.79-3.64A4.07,4.07,0,0,0,739,140Z"/></g></g><g id="co-operate-arrrow"><g id="Group-2"><path id="Combined-Shape2" d="M224.49,61.47,260.4,83.84,259,120.92c-114,66.71-190.51,190.43-190.51,332,0,132.34,66.87,249.06,168.66,318.22L201.94,790l-1.17,38.27C79.7,747.1,0,609,0,452.29,0,285.57,90.21,139.91,224.49,61.47Z"/><g id="Thrive"><path id="Co-operate" class="cls-1" d="M63.28,557.65a14.6,14.6,0,0,1,.37,5.61,11.07,11.07,0,0,1-1.89,4.82,13.6,13.6,0,0,1-4.15,3.8,22.82,22.82,0,0,1-6.43,2.56,23.71,23.71,0,0,1-7,.78,14.21,14.21,0,0,1-5.6-1.37,11.41,11.41,0,0,1-4.06-3.34,13.79,13.79,0,0,1-2.37-5.11,12.54,12.54,0,0,1,0-7.15,12.2,12.2,0,0,1,4.15-5.56l3.8,4.22a7.05,7.05,0,0,0-2.73,2.92,6.23,6.23,0,0,0-.23,4.31,6.56,6.56,0,0,0,3.42,4.52,9.17,9.17,0,0,0,6.5.37l4.74-1.18a9,9,0,0,0,5.54-3.37,6.66,6.66,0,0,0,.83-5.58,6.37,6.37,0,0,0-2.42-3.81,8.19,8.19,0,0,0-4-1.5l1.56-5.29a13.64,13.64,0,0,1,6.32,3A12,12,0,0,1,63.28,557.65Zm-7-25.49a11.26,11.26,0,0,1-.06,4.54,9.25,9.25,0,0,1-1.82,3.75A11.16,11.16,0,0,1,51,543.23a15.74,15.74,0,0,1-4.83,1.62,15.54,15.54,0,0,1-5.07.13A11,11,0,0,1,37,543.52a9.37,9.37,0,0,1-3-2.9,11.26,11.26,0,0,1-1.61-4.25,11.42,11.42,0,0,1,.05-4.56A9.33,9.33,0,0,1,34.24,528a11,11,0,0,1,3.36-2.78,15.54,15.54,0,0,1,4.81-1.61,15.74,15.74,0,0,1,5.09-.13A11.16,11.16,0,0,1,51.66,525a9.21,9.21,0,0,1,3,2.92A11.42,11.42,0,0,1,56.26,532.16Zm-4.5.79a4.63,4.63,0,0,0-2-3.26,5.71,5.71,0,0,0-4.2-.57l-4.24.75a5.64,5.64,0,0,0-3.71,2,4.63,4.63,0,0,0-.74,3.74,4.57,4.57,0,0,0,2,3.22,5.64,5.64,0,0,0,4.16.57l4.24-.75a5.71,5.71,0,0,0,3.76-2A4.57,4.57,0,0,0,51.76,533Zm-7.21-13.78-5.57.88-2-12.54,5.57-.88Zm6.64-28.27a11.26,11.26,0,0,1-.61,4.5,9.25,9.25,0,0,1-2.26,3.5,11.16,11.16,0,0,1-3.72,2.35,15.74,15.74,0,0,1-5,1,15.54,15.54,0,0,1-5-.49,11,11,0,0,1-3.9-2,9.37,9.37,0,0,1-2.59-3.24A11.26,11.26,0,0,1,27,492.17a11.42,11.42,0,0,1,.61-4.52,9.33,9.33,0,0,1,2.24-3.52,11,11,0,0,1,3.68-2.35,15.54,15.54,0,0,1,5-1,15.74,15.74,0,0,1,5.07.49,11.16,11.16,0,0,1,3.95,1.95,9.21,9.21,0,0,1,2.62,3.26A11.42,11.42,0,0,1,51.19,490.9Zm-4.57.24a4.63,4.63,0,0,0-1.56-3.48,5.71,5.71,0,0,0-4.1-1.07l-4.3.23a5.64,5.64,0,0,0-3.92,1.49,4.63,4.63,0,0,0-1.19,3.62,4.57,4.57,0,0,0,1.56,3.43,5.64,5.64,0,0,0,4.06,1.08l4.3-.23a5.71,5.71,0,0,0,4-1.5A4.57,4.57,0,0,0,46.63,491.14ZM25.15,476.08,25,470.4l3.82-.07v-.18a5.83,5.83,0,0,1-3.22-2.3,7,7,0,0,1-1.25-4,7.92,7.92,0,0,1,3-6.82q3.09-2.39,8.9-2.49t9.05,2.17a7.9,7.9,0,0,1,3.27,6.71,6.82,6.82,0,0,1-1.13,4,6.2,6.2,0,0,1-3.15,2.43v.18l12.74-.22.1,5.68ZM44,465.17a4.71,4.71,0,0,0-1.53-3.57,5.54,5.54,0,0,0-4-1.31l-4,.07a5.62,5.62,0,0,0-3.95,1.45,4.67,4.67,0,0,0-1.42,3.62,5.48,5.48,0,0,0,1.08,3.38,3.23,3.23,0,0,0,2.73,1.31l7.37-.13a3.24,3.24,0,0,0,2.77-1.4A5.66,5.66,0,0,0,44,465.17Zm5.14-24.81A11.57,11.57,0,0,1,48,444.91a9.51,9.51,0,0,1-2.62,3.29,10.92,10.92,0,0,1-3.93,2,15.74,15.74,0,0,1-5.07.49,15.82,15.82,0,0,1-4.93-1,10.87,10.87,0,0,1-3.68-2.3,9.35,9.35,0,0,1-2.26-3.5,11.29,11.29,0,0,1-.63-4.57,11,11,0,0,1,1.18-4.65,9.06,9.06,0,0,1,2.7-3.15,10.93,10.93,0,0,1,3.8-1.73,15.36,15.36,0,0,1,4.53-.41l1.86.1-.81,15.39.58,0a5.74,5.74,0,0,0,4.13-1.21,5.48,5.48,0,0,0,1.75-4.13,6.25,6.25,0,0,0-.7-3.53,10,10,0,0,0-2.13-2.54l3.57-2.88a9.53,9.53,0,0,1,2.92,4A13.54,13.54,0,0,1,49.1,440.36Zm-20-.78a4.55,4.55,0,0,0,1.32,3.67,5.69,5.69,0,0,0,3.83,1.53l.35,0,.5-9.49-.4,0a6.08,6.08,0,0,0-3.94,1A4.07,4.07,0,0,0,29.14,439.58Zm20.33-14.46L26.35,423.5l.4-5.67,4.78.33,0-.22a7.39,7.39,0,0,1-1.75-.81,5.52,5.52,0,0,1-1.44-1.32,5.85,5.85,0,0,1-.94-1.87,6.74,6.74,0,0,1-.23-2.44l.09-1.24,5.36.37-.12,1.77a8.91,8.91,0,0,0,.54,4.4,2.93,2.93,0,0,0,2.64,1.65l14.17,1ZM53.27,392a4,4,0,0,1-1.49,2.77,5,5,0,0,1-3.07.94l0,.26a5.44,5.44,0,0,1,3,2.8,8,8,0,0,1,.51,4.51,7.49,7.49,0,0,1-2.61,5.15,6.63,6.63,0,0,1-5.19,1.2,6,6,0,0,1-4.94-3.29q-1.38-2.79-.72-7.5l.55-3.91-1.67-.23a4.19,4.19,0,0,0-3.13.59A4.38,4.38,0,0,0,33,398.39a5.45,5.45,0,0,0,.41,3.31A8.55,8.55,0,0,0,35.17,404L31.71,407A9.78,9.78,0,0,1,29,403.12a11.3,11.3,0,0,1-.42-5.75q.66-4.66,3.11-6.78A7.7,7.7,0,0,1,38.09,389l10.82,1.52.32-2.29,4.48.63Zm-4.69,8.25a5.94,5.94,0,0,0-.38-3.33,2.76,2.76,0,0,0-2.28-1.67l-3-.43-.51,3.61q-.62,4.4,2.2,4.79l.75.11a2.47,2.47,0,0,0,2.22-.61A4.24,4.24,0,0,0,48.58,400.25ZM55.87,378a6,6,0,0,1-2.28,4.13,5.92,5.92,0,0,1-4.57.75l-12.59-2.22-.59,3.37-4.42-.78.31-1.75a2.12,2.12,0,0,0-.29-1.83,2.9,2.9,0,0,0-1.69-.77l-3.89-.69.89-5,6.25,1.1.82-4.68,4.42.78-.82,4.68,13.95,2.46.76-4.33,4.46.79Zm4.44-18.37A11.57,11.57,0,0,1,58.42,364a9.51,9.51,0,0,1-3.15,2.78,10.92,10.92,0,0,1-4.2,1.24,17.22,17.22,0,0,1-9.76-2.23,10.87,10.87,0,0,1-3.22-2.91A9.35,9.35,0,0,1,36.47,359a11.29,11.29,0,0,1,.18-4.61,11,11,0,0,1,2-4.38,9.06,9.06,0,0,1,3.21-2.63,10.93,10.93,0,0,1,4-1,15.36,15.36,0,0,1,4.54.39l1.82.42-3.47,15,.56.13a5.74,5.74,0,0,0,4.28-.47A5.48,5.48,0,0,0,56,358a6.25,6.25,0,0,0-.08-3.6,10,10,0,0,0-1.66-2.87l4-2.22a9.53,9.53,0,0,1,2.18,4.49A13.54,13.54,0,0,1,60.3,359.67Zm-19.61-4.38a4.55,4.55,0,0,0,.66,3.84,5.69,5.69,0,0,0,3.51,2.18l.35.08,2.14-9.26L47,352a6.08,6.08,0,0,0-4.05.27A4.07,4.07,0,0,0,40.69,355.29Z"/></g></g></g><g id="co-execute-arrow"><path id="Combined-Shape4" d="M903.84,478.41C890.31,716,693.32,904.58,452.29,904.58a450.19,450.19,0,0,1-230.56-63.09L223,803.15l35.27-18.62a382.67,382.67,0,0,0,194.66,52.85c204.18,0,371.18-159.17,383.7-360.2l36.27,20Z"/><g id="co-execute"><g id="Transform"><path id="Co-execute-2" data-name="Co-execute" class="cls-1" d="M559.33,875.47a14.6,14.6,0,0,1-5.6.47,11.07,11.07,0,0,1-4.85-1.8A13.6,13.6,0,0,1,545,870a22.82,22.82,0,0,1-2.68-6.38,23.71,23.71,0,0,1-.9-7,14.21,14.21,0,0,1,1.27-5.63A11.41,11.41,0,0,1,546,847,13.79,13.79,0,0,1,551,844.5a12.54,12.54,0,0,1,7.15-.08,12.2,12.2,0,0,1,5.64,4.05l-4.16,3.87a7.05,7.05,0,0,0-3-2.67,6.23,6.23,0,0,0-4.32-.15,6.56,6.56,0,0,0-4.46,3.49,9.17,9.17,0,0,0-.26,6.5l1.26,4.72a9,9,0,0,0,3.47,5.48,6.66,6.66,0,0,0,5.6.73,6.37,6.37,0,0,0,3.77-2.48,8.19,8.19,0,0,0,1.43-4l5.31,1.47a13.64,13.64,0,0,1-2.94,6.37A12,12,0,0,1,559.33,875.47Zm24.13-9.37a11.26,11.26,0,0,1-4.49.66,9.25,9.25,0,0,1-4-1.21,11.16,11.16,0,0,1-3.29-2.93,15.74,15.74,0,0,1-2.35-4.52,15.54,15.54,0,0,1-.92-5,11,11,0,0,1,.8-4.29,9.37,9.37,0,0,1,2.4-3.39,11.26,11.26,0,0,1,3.94-2.25,11.42,11.42,0,0,1,4.51-.66,9.33,9.33,0,0,1,4,1.18,11,11,0,0,1,3.27,2.89,15.54,15.54,0,0,1,2.35,4.5,15.74,15.74,0,0,1,.93,5,11.16,11.16,0,0,1-.79,4.33,9.21,9.21,0,0,1-2.42,3.41A11.42,11.42,0,0,1,583.46,866.1ZM582,861.78a4.63,4.63,0,0,0,2.91-2.46,5.71,5.71,0,0,0-.1-4.24l-1.4-4.07a5.64,5.64,0,0,0-2.52-3.36,4.63,4.63,0,0,0-3.81-.14,4.57,4.57,0,0,0-2.87,2.44,5.64,5.64,0,0,0,.08,4.2l1.4,4.07a5.71,5.71,0,0,0,2.53,3.4A4.57,4.57,0,0,0,582,861.78Zm12.15-9.34L592,847.21l11.77-4.76,2.11,5.23Zm28.25-1.85a11.57,11.57,0,0,1-4.57,1,9.51,9.51,0,0,1-4.1-.91,10.92,10.92,0,0,1-3.47-2.67,17.22,17.22,0,0,1-3.93-9.21,10.87,10.87,0,0,1,.46-4.32,9.35,9.35,0,0,1,2.15-3.57,11.29,11.29,0,0,1,3.83-2.57,11,11,0,0,1,4.7-1,9.06,9.06,0,0,1,4,1,10.93,10.93,0,0,1,3.23,2.66A15.36,15.36,0,0,1,627,835l.73,1.72-14.18,6,.23.53a5.74,5.74,0,0,0,2.9,3.18,5.48,5.48,0,0,0,4.48-.24A6.25,6.25,0,0,0,624,844a10,10,0,0,0,1.34-3l4.16,1.95a9.53,9.53,0,0,1-2.35,4.4A13.54,13.54,0,0,1,622.37,850.59Zm-7.58-18a4.55,4.55,0,0,0-2.72,2.79,5.69,5.69,0,0,0,.3,4.12l.14.33,8.75-3.71-.16-.37a6.08,6.08,0,0,0-2.6-3.12A4.07,4.07,0,0,0,614.78,832.61Zm20.27,11.85,1.45-14.1-12.18-6.45,5.72-3,7.84,4.53.12-.06.59-9,5.37-2.86-1.54,13.84,12.46,6.6-5.68,3-8.15-4.82-.16.08-.6,9.47Zm33.48-18.06a11.57,11.57,0,0,1-4.33,1.78A9.51,9.51,0,0,1,660,828a10.92,10.92,0,0,1-3.89-2,17.22,17.22,0,0,1-5.47-8.38,10.87,10.87,0,0,1-.3-4.33,9.35,9.35,0,0,1,1.5-3.89,11.29,11.29,0,0,1,3.33-3.19,11,11,0,0,1,4.45-1.78,9.06,9.06,0,0,1,4.13.33,10.93,10.93,0,0,1,3.64,2.06,15.36,15.36,0,0,1,3,3.43l1,1.56-12.92,8.39.31.48a5.74,5.74,0,0,0,3.4,2.63,5.48,5.48,0,0,0,4.37-1,6.25,6.25,0,0,0,2.44-2.64,10,10,0,0,0,.8-3.22l4.43,1.2a9.53,9.53,0,0,1-1.55,4.74A13.54,13.54,0,0,1,668.54,826.4Zm-10.88-16.75a4.55,4.55,0,0,0-2.19,3.22,5.69,5.69,0,0,0,1,4l.19.3,8-5.17-.22-.34a6.08,6.08,0,0,0-3.1-2.62A4.07,4.07,0,0,0,657.66,809.65Zm32.86,1.78a11.67,11.67,0,0,1-4,2.29,8.82,8.82,0,0,1-4.14.28,11,11,0,0,1-4.05-1.61,16.65,16.65,0,0,1-3.78-3.4,16.43,16.43,0,0,1-2.68-4.3,10.79,10.79,0,0,1-.86-4.24,8.92,8.92,0,0,1,1-4,11.67,11.67,0,0,1,3-3.59,10.09,10.09,0,0,1,5.44-2.53,8.72,8.72,0,0,1,5.3,1.17l-2.23,4.6a4.83,4.83,0,0,0-2.69-.9,4.32,4.32,0,0,0-2.88,1.17,4.25,4.25,0,0,0-1.77,3.45,6.25,6.25,0,0,0,1.64,3.78l2.71,3.23a6.15,6.15,0,0,0,3.43,2.25,4.28,4.28,0,0,0,3.69-1.16,4.43,4.43,0,0,0,1.74-2.83A7.15,7.15,0,0,0,689,802l4.67-1.2a9.1,9.1,0,0,1,.27,5.77A10.27,10.27,0,0,1,690.51,811.43Zm19.13-19.18-.17.14a7.58,7.58,0,0,1,.41,1.81,6,6,0,0,1-.12,1.9,5.87,5.87,0,0,1-.83,1.93,8.08,8.08,0,0,1-1.73,1.85,6.68,6.68,0,0,1-5.76,1.64q-3-.63-5.7-4l-9.22-11.39,4.42-3.58,8.86,10.94a6.11,6.11,0,0,0,3,2.26,3.45,3.45,0,0,0,3.11-.89,6.35,6.35,0,0,0,1.15-1.22,4.21,4.21,0,0,0,.69-1.44,3.83,3.83,0,0,0,.07-1.54,3.17,3.17,0,0,0-.71-1.51l-9.64-11.9,4.42-3.58,14.59,18-4.42,3.58Zm18.78-8.81a6,6,0,0,1-4.37,1.77,5.92,5.92,0,0,1-4-2.3l-8.39-9.65-2.58,2.24-2.94-3.38,1.34-1.17a2.12,2.12,0,0,0,.93-1.6,2.9,2.9,0,0,0-.83-1.66l-2.59-3,3.85-3.35,4.17,4.79,3.59-3.12,2.94,3.38-3.59,3.12,9.29,10.69,3.32-2.88,3,3.42Zm13.79-11.77a11.57,11.57,0,0,1-4.08,2.29,9.51,9.51,0,0,1-4.19.33,10.92,10.92,0,0,1-4.1-1.54,17.22,17.22,0,0,1-6.45-7.66,10.87,10.87,0,0,1-.82-4.26,9.35,9.35,0,0,1,1-4,11.29,11.29,0,0,1,2.91-3.57,11,11,0,0,1,4.2-2.31,9.06,9.06,0,0,1,4.14-.17,10.93,10.93,0,0,1,3.86,1.6,15.36,15.36,0,0,1,3.39,3l1.2,1.43-11.8,9.9.37.44a5.74,5.74,0,0,0,3.7,2.2,5.48,5.48,0,0,0,4.22-1.54,6.25,6.25,0,0,0,2.1-2.92,10,10,0,0,0,.4-3.29l4.54.65a9.53,9.53,0,0,1-1,4.9A13.54,13.54,0,0,1,742.21,771.67ZM729.85,757a4.55,4.55,0,0,0-1.78,3.47,5.69,5.69,0,0,0,1.49,3.85l.23.27,7.28-6.11-.26-.31a6.08,6.08,0,0,0-3.4-2.22A4.07,4.07,0,0,0,729.85,757Z"/></g></g></g></g><g id="gm-hexes-color"><g id="learn"><polygon id="Fill-34" class="cls-2" points="306.15 221.2 369.53 330.3 306.15 439.39 179.38 439.39 116 330.3 179.38 221.2 306.15 221.2"/><g id="graph-black"><polygon id="Fill-40" class="cls-1" points="291.46 346.06 193.93 346.06 193.93 265.07 197.71 265.07 197.71 342.3 291.46 342.3 291.46 346.06"/><polygon id="Fill-42" class="cls-1" points="280.07 290.81 289.5 290.81 289.5 287.04 280.07 287.04 280.07 290.81"/><polygon id="Fill-44" class="cls-1" points="253.59 320.43 250.45 318.33 266.75 294.13 269.88 296.23 253.59 320.43"/><polygon id="Fill-45" class="cls-1" points="241.44 322.93 230.37 314.95 232.58 311.89 243.65 319.87 241.44 322.93"/><path id="Fill-46" class="cls-1" d="M225.37,303.37A5.65,5.65,0,1,0,231,309a5.66,5.66,0,0,0-5.66-5.65m0,15.07A9.42,9.42,0,1,1,234.8,309a9.44,9.44,0,0,1-9.43,9.42"/><path id="Fill-47" class="cls-1" d="M248.95,319.69a5.65,5.65,0,1,0,5.66,5.65,5.66,5.66,0,0,0-5.66-5.65m0,15.07a9.42,9.42,0,1,1,9.43-9.42,9.44,9.44,0,0,1-9.43,9.42"/><path id="Fill-48" class="cls-1" d="M272.53,283.27a5.65,5.65,0,1,0,5.66,5.65,5.66,5.66,0,0,0-5.66-5.65m0,15.07a9.42,9.42,0,1,1,9.43-9.42,9.44,9.44,0,0,1-9.43,9.42"/><polygon id="Fill-49" class="cls-1" points="208.39 310.9 217.82 310.9 217.82 307.13 208.39 307.13 208.39 310.9"/></g><path id="Learn-2" data-name="Learn" class="cls-1" d="M202.15,397.17V373.74H206v20.08h9.59v3.36Zm23.6.4a8.47,8.47,0,0,1-3.38-.64,7,7,0,0,1-2.53-1.83,8.19,8.19,0,0,1-1.6-2.89,13.08,13.08,0,0,1,0-7.55,8.19,8.19,0,0,1,1.6-2.89,7,7,0,0,1,2.53-1.83,8.49,8.49,0,0,1,3.38-.64,8.09,8.09,0,0,1,3.39.67,6.74,6.74,0,0,1,2.45,1.86,8.08,8.08,0,0,1,1.47,2.77,11.39,11.39,0,0,1,.49,3.39v1.38H221.5V390a4.67,4.67,0,0,0,1.2,3.31,4.44,4.44,0,0,0,3.43,1.29,5,5,0,0,0,2.73-.7,6.17,6.17,0,0,0,1.89-1.91l2.16,2.11a6.93,6.93,0,0,1-2.84,2.57A9.31,9.31,0,0,1,225.75,397.57Zm0-15.41a4.39,4.39,0,0,0-1.74.34,3.86,3.86,0,0,0-1.35.94,4.21,4.21,0,0,0-.86,1.44,5.39,5.39,0,0,0-.3,1.85V387h8.17v-.34a4.82,4.82,0,0,0-1-3.24A3.58,3.58,0,0,0,225.75,382.16Zm24.74,15a2.91,2.91,0,0,1-2.23-.82,3.67,3.67,0,0,1-.95-2.1h-.17a4.3,4.3,0,0,1-1.86,2.48,6.08,6.08,0,0,1-3.27.84,5.83,5.83,0,0,1-4.2-1.41,5,5,0,0,1-1.47-3.79,4.45,4.45,0,0,1,1.91-3.93,9.87,9.87,0,0,1,5.59-1.31H247v-1.48a3.35,3.35,0,0,0-.88-2.48,3.74,3.74,0,0,0-2.73-.87,4.38,4.38,0,0,0-2.53.67,6,6,0,0,0-1.65,1.71l-2.19-2a7,7,0,0,1,2.46-2.43,8,8,0,0,1,4.15-1,7.76,7.76,0,0,1,5.23,1.58,5.67,5.67,0,0,1,1.82,4.53v8.76h1.86v3Zm-7.43-2.38a4.94,4.94,0,0,0,2.84-.76,2.34,2.34,0,0,0,1.11-2v-2.52h-3.11q-3.81,0-3.81,2.35v.6a2.05,2.05,0,0,0,.79,1.76A3.59,3.59,0,0,0,243.07,394.79Zm13.1,2.38V379.71h3.68v3.36H260a4.71,4.71,0,0,1,1.55-2.35,4.89,4.89,0,0,1,3.28-1h1v3.53h-1.45a6.55,6.55,0,0,0-3.36.7,2.29,2.29,0,0,0-1.16,2.08v11.15Zm12.93,0V379.71h3.68v2.89h.17a5.76,5.76,0,0,1,1.74-2.35,4.94,4.94,0,0,1,3.19-.94,5.22,5.22,0,0,1,4.2,1.76,7.52,7.52,0,0,1,1.5,5v11.08H279.9V386.56q0-4.1-3.31-4.1a5.38,5.38,0,0,0-1.4.19,4,4,0,0,0-1.23.55,2.76,2.76,0,0,0-.86.94,2.7,2.7,0,0,0-.32,1.34v11.68Z"/></g><g id="reason"><polygon id="Fill-26" class="cls-3" points="516.84 585.01 580.22 694.1 516.84 803.19 390.07 803.19 326.69 694.1 390.07 585.01 516.84 585.01"/><g id="brain"><path id="Stroke-1" class="cls-1" d="M499.63,670c0,.06,0,.12,0,.17a12,12,0,0,1-9.14,11.08,2,2,0,0,1-.92-3.92,8,8,0,0,0,6-7.53v-.45a8,8,0,0,0-5.92-7.49l-2-.23a7.59,7.59,0,0,0-1.53.18,7.45,7.45,0,0,0-1.62.54,2,2,0,0,1-1.71-3.64,11.79,11.79,0,0,1,4.84-1.1h.11A11.91,11.91,0,0,1,499.62,669c0,.05,0,.11,0,.17s0,.27,0,.4S499.63,669.84,499.63,670Z"/><path id="Stroke-3" class="cls-1" d="M490.26,646.36a11.92,11.92,0,0,1,2.48,13.52,2,2,0,0,1-3.65-1.69,7.9,7.9,0,0,0-1.66-9,8.28,8.28,0,0,0-11.57,0,2,2,0,1,1-2.82-2.87A7.91,7.91,0,0,0,473,635a8.28,8.28,0,0,0-11.57,0,8.62,8.62,0,0,0-2.38,5.93v41.75a8.35,8.35,0,0,0,7.86,8.43h14.71a8.1,8.1,0,0,0,8.16-7.74V683a8.1,8.1,0,0,0-8.16-7.74,2,2,0,0,1,0-4,12.12,12.12,0,0,1,12.18,11.41c0,.3,0,.44,0,.58s0,.27,0,.41a12.16,12.16,0,0,1-12.19,11.58H466.88a12.38,12.38,0,0,1-11.82-12.45V641a12.63,12.63,0,0,1,3.55-8.76l.11-.1a12.31,12.31,0,0,1,17.15.07,11.93,11.93,0,0,1,3.34,10.91A12.28,12.28,0,0,1,490.26,646.36Z"/><path id="Stroke-5" class="cls-1" d="M413.9,669.8a8,8,0,0,0,6,7.53,2,2,0,0,1-.92,3.92,12,12,0,0,1-9.14-11.09c0-.06,0-.11,0-.17s0-.28,0-.43,0-.26,0-.4,0-.11,0-.16a11.91,11.91,0,0,1,11.81-11.4,11.75,11.75,0,0,1,2.45.26,11.52,11.52,0,0,1,2.49.84,2,2,0,0,1-1.71,3.64,7.51,7.51,0,0,0-1.63-.55,7.63,7.63,0,0,0-1.61-.18,7.89,7.89,0,0,0-7.8,7.72Z"/><path id="Stroke-7" class="cls-1" d="M420.85,683.55a8,8,0,0,0,8,7.6h21.26a2,2,0,0,1,0,4H428.86a12,12,0,0,1-12-11.28c0-.05,0-.11,0-.16s0-.27,0-.41,0-.27,0-.41,0-.11,0-.16a12,12,0,0,1,12-11.28,2,2,0,0,1,0,4,7.94,7.94,0,0,0-8,7.6Z"/><path id="Stroke-9" class="cls-1" d="M434.51,649.55a7.86,7.86,0,0,0-11.3,0,8.38,8.38,0,0,0-1.64,9.24,2,2,0,1,1-3.67,1.64,12.4,12.4,0,0,1,2.44-13.7,11.88,11.88,0,0,1,10.91-3.36,12.37,12.37,0,0,1,3.27-11.11,11.9,11.9,0,0,1,17,0,2,2,0,1,1-2.87,2.82,7.87,7.87,0,0,0-11.3,0,8.37,8.37,0,0,0,0,11.65A2,2,0,0,1,434.51,649.55Z"/><path id="Stroke-11" class="cls-1" d="M461.4,716.31a2,2,0,1,1-4,0V710.1a8,8,0,0,1,4-6.93,11.38,11.38,0,0,0,6.47-10,2,2,0,1,1,4,0,15.39,15.39,0,0,1-8.65,13.58,4,4,0,0,0-1.78,3.36Z"/><path id="Stroke-13" class="cls-1" d="M437.68,693.17a2,2,0,1,1,4,0,11.22,11.22,0,0,0,6.46,9.87,7.55,7.55,0,0,1,4,6.78v6.49a2,2,0,1,1-4,0v-6.5a3.55,3.55,0,0,0-1.77-3.19A15.23,15.23,0,0,1,437.68,693.17Z"/></g><path id="Reason-2" data-name="Reason" class="cls-1" d="M403.25,761.23h-3.87V737.32h10.31a6.68,6.68,0,0,1,5.07,1.94,8.35,8.35,0,0,1,.67,9.52,6.24,6.24,0,0,1-3.48,2.38l5.17,10.07H412.8l-4.8-9.66h-4.76Zm6.16-12.91a3.22,3.22,0,0,0,2.29-.77,2.88,2.88,0,0,0,.82-2.21V743.7a2.88,2.88,0,0,0-.82-2.21,3.22,3.22,0,0,0-2.29-.77h-6.16v7.6ZM428,761.65a8.55,8.55,0,0,1-3.43-.65,7.08,7.08,0,0,1-2.57-1.87,8.35,8.35,0,0,1-1.63-2.95,13.41,13.41,0,0,1,0-7.71,8.35,8.35,0,0,1,1.63-2.95,7.1,7.1,0,0,1,2.57-1.87A8.58,8.58,0,0,1,428,743a8.17,8.17,0,0,1,3.44.68,6.85,6.85,0,0,1,2.48,1.9,8.27,8.27,0,0,1,1.49,2.83,11.69,11.69,0,0,1,.5,3.46v1.4H423.69v.58a4.78,4.78,0,0,0,1.22,3.37,4.49,4.49,0,0,0,3.48,1.32,5.06,5.06,0,0,0,2.77-.72,6.26,6.26,0,0,0,1.92-2l2.19,2.16a7.06,7.06,0,0,1-2.88,2.62A9.4,9.4,0,0,1,428,761.65Zm0-15.72a4.44,4.44,0,0,0-1.76.34,3.89,3.89,0,0,0-1.37,1,4.3,4.3,0,0,0-.87,1.47,5.53,5.53,0,0,0-.31,1.88v.24H432v-.34a4.94,4.94,0,0,0-1.06-3.31A3.62,3.62,0,0,0,428,745.92Zm25.1,15.31a3,3,0,0,1-2.26-.84,3.74,3.74,0,0,1-1-2.14h-.17a4.38,4.38,0,0,1-1.88,2.53,6.15,6.15,0,0,1-3.32.86,5.89,5.89,0,0,1-4.26-1.44,5.13,5.13,0,0,1-1.49-3.87,4.55,4.55,0,0,1,1.93-4,10,10,0,0,1,5.67-1.34h3.22v-1.51a3.43,3.43,0,0,0-.89-2.53,3.79,3.79,0,0,0-2.77-.89,4.43,4.43,0,0,0-2.57.69,6.09,6.09,0,0,0-1.68,1.75l-2.23-2a7.14,7.14,0,0,1,2.5-2.48,8,8,0,0,1,4.21-1,7.85,7.85,0,0,1,5.31,1.61,5.8,5.8,0,0,1,1.85,4.62v8.94h1.88v3Zm-7.54-2.43a5,5,0,0,0,2.88-.77,2.39,2.39,0,0,0,1.13-2.07v-2.57h-3.15q-3.87,0-3.87,2.4v.62a2.1,2.1,0,0,0,.8,1.8A3.63,3.63,0,0,0,445.58,758.8Zm18.94,2.84a9.13,9.13,0,0,1-4.25-.89,9.3,9.3,0,0,1-3-2.47l2.4-2.19a7.69,7.69,0,0,0,2.21,1.87,5.77,5.77,0,0,0,2.83.67,3.92,3.92,0,0,0,2.45-.63,2.12,2.12,0,0,0,.8-1.76,2,2,0,0,0-.57-1.46,3.19,3.19,0,0,0-2-.77l-1.64-.21a8.41,8.41,0,0,1-4.3-1.59,4.47,4.47,0,0,1-1.56-3.72,5.34,5.34,0,0,1,.48-2.31,4.84,4.84,0,0,1,1.35-1.71,6.23,6.23,0,0,1,2.09-1.08,9,9,0,0,1,2.69-.38,8.85,8.85,0,0,1,3.92.75,9,9,0,0,1,2.72,2.09L468.9,748a6,6,0,0,0-1.8-1.42,5.31,5.31,0,0,0-2.55-.6,3.5,3.5,0,0,0-2.28.62,2,2,0,0,0-.74,1.61,1.84,1.84,0,0,0,.65,1.54,4.65,4.65,0,0,0,2.09.75l1.64.21a7.86,7.86,0,0,1,4.3,1.73,4.52,4.52,0,0,1,1.35,3.44,5.41,5.41,0,0,1-.5,2.35,5.16,5.16,0,0,1-1.42,1.8,6.67,6.67,0,0,1-2.23,1.16A9.65,9.65,0,0,1,464.51,761.65Zm18.25,0a8.5,8.5,0,0,1-3.37-.65,7,7,0,0,1-2.59-1.87,8.58,8.58,0,0,1-1.64-2.95,13,13,0,0,1,0-7.71,8.58,8.58,0,0,1,1.64-2.95,7.07,7.07,0,0,1,2.59-1.87,9.07,9.07,0,0,1,6.75,0,7.07,7.07,0,0,1,2.59,1.87,8.56,8.56,0,0,1,1.64,2.95,13,13,0,0,1,0,7.71,8.56,8.56,0,0,1-1.64,2.95,7,7,0,0,1-2.59,1.87A8.49,8.49,0,0,1,482.77,761.65Zm0-3.08a4.13,4.13,0,0,0,3.08-1.18,4.86,4.86,0,0,0,1.16-3.55v-3a4.86,4.86,0,0,0-1.16-3.55,4.61,4.61,0,0,0-6.16,0,4.86,4.86,0,0,0-1.16,3.55v3a4.86,4.86,0,0,0,1.16,3.55A4.14,4.14,0,0,0,482.77,758.56Zm12.33,2.67V743.42h3.73v2.95H499a5.86,5.86,0,0,1,1.76-2.4,5,5,0,0,1,3.24-1,5.29,5.29,0,0,1,4.26,1.8,7.7,7.7,0,0,1,1.52,5.12v11.3h-3.73V750.41q0-4.18-3.36-4.18a5.48,5.48,0,0,0-1.42.19A4,4,0,0,0,500,747a2.81,2.81,0,0,0-.87,1,2.76,2.76,0,0,0-.32,1.37v11.92Z"/></g><g id="operate"><polygon id="Fill-341" class="cls-4" points="306.15 462.71 369.53 571.8 306.15 680.89 179.38 680.89 116 571.8 179.38 462.71 306.15 462.71"/><g id="gear"><path id="Fill-64" class="cls-1" d="M237.38,590.87h10.11V579l1.48-.34a28.79,28.79,0,0,0,8.91-3.71l1.29-.81,8.42,8.4,7.14-7.13L266.28,567l.8-1.28a28.62,28.62,0,0,0,3.66-8.87l.33-1.48h12V545.28H271l-.34-1.47A28.58,28.58,0,0,0,267,535l-.81-1.29,8.53-8.52-7.14-7.13L259,526.63l-1.28-.8a28.73,28.73,0,0,0-8.77-3.62l-1.48-.34V509.78H237.38v12.09l-1.48.34a28.71,28.71,0,0,0-8.77,3.62l-1.28.8-8.55-8.55-7.15,7.13,8.53,8.52-.81,1.29a28.63,28.63,0,0,0-3.68,8.78l-.34,1.47h-12v10.09h12l.33,1.48a28.77,28.77,0,0,0,3.66,8.87l.8,1.28-8.44,8.42,7.15,7.13,8.41-8.4L227,575a28.84,28.84,0,0,0,8.91,3.71l1.48.34Zm13.91,3.8H233.58V582a32.66,32.66,0,0,1-7.3-3l-9,9-12.53-12.51,9-9a32.53,32.53,0,0,1-3-7.25H198V541.48h12.84a32.36,32.36,0,0,1,3-7.17l-9.1-9.09,12.53-12.51,9.13,9.12a32.54,32.54,0,0,1,7.14-3V506H251.3v12.9a32.52,32.52,0,0,1,7.14,3l9.14-9.12,12.53,12.51-9.1,9.09a32.75,32.75,0,0,1,3,7.17h12.83v17.69H274.08a32.6,32.6,0,0,1-3,7.25l9,9-12.53,12.51-9-9a32.65,32.65,0,0,1-7.3,3Z"/><path id="Fill-65" class="cls-1" d="M242.44,537.57a12.87,12.87,0,1,0,12.89,12.87,12.9,12.9,0,0,0-12.89-12.87m0,29.55a16.67,16.67,0,1,1,16.7-16.67,16.7,16.7,0,0,1-16.7,16.67"/></g><path id="Operate-2" data-name="Operate" class="cls-1" d="M191.44,639.87a10.74,10.74,0,0,1-4.23-.81A8.79,8.79,0,0,1,184,636.7a10.83,10.83,0,0,1-2.09-3.87,19.63,19.63,0,0,1,0-10.65,10.82,10.82,0,0,1,2.09-3.87,8.79,8.79,0,0,1,3.25-2.36,11.52,11.52,0,0,1,8.46,0,8.79,8.79,0,0,1,3.25,2.36,10.83,10.83,0,0,1,2.09,3.87,19.62,19.62,0,0,1,0,10.65,10.83,10.83,0,0,1-2.09,3.87,8.79,8.79,0,0,1-3.25,2.36A10.74,10.74,0,0,1,191.44,639.87Zm0-3.46a6.47,6.47,0,0,0,2.52-.48,5.32,5.32,0,0,0,2-1.39,6.41,6.41,0,0,0,1.25-2.21,9.08,9.08,0,0,0,.44-2.95v-3.77a9.08,9.08,0,0,0-.44-2.95,6.41,6.41,0,0,0-1.25-2.21,5.3,5.3,0,0,0-2-1.39,6.89,6.89,0,0,0-5.05,0,5.32,5.32,0,0,0-1.93,1.39,6.41,6.41,0,0,0-1.25,2.21,9.08,9.08,0,0,0-.44,2.95v3.77a9.08,9.08,0,0,0,.44,2.95,6.41,6.41,0,0,0,1.25,2.21,5.34,5.34,0,0,0,1.93,1.39A6.44,6.44,0,0,0,191.44,636.41Zm14.86-14.76H210v2.95h.17a4.86,4.86,0,0,1,1.9-2.48,5.48,5.48,0,0,1,3.1-.87,6.18,6.18,0,0,1,5.24,2.45,13.68,13.68,0,0,1,0,13.73,6.18,6.18,0,0,1-5.24,2.45,5.4,5.4,0,0,1-3.1-.89,5,5,0,0,1-1.9-2.47H210v9.8H206.3Zm7.77,15a4.06,4.06,0,0,0,3.12-1.25,4.66,4.66,0,0,0,1.17-3.31V629a4.65,4.65,0,0,0-1.17-3.31,4.06,4.06,0,0,0-3.12-1.25,4.79,4.79,0,0,0-2.88.84,2.6,2.6,0,0,0-1.17,2.21v6.1a2.6,2.6,0,0,0,1.17,2.21A4.8,4.8,0,0,0,214.08,636.65Zm19.49,3.22a8.55,8.55,0,0,1-3.43-.65,7.08,7.08,0,0,1-2.57-1.87,8.35,8.35,0,0,1-1.63-2.95,13.41,13.41,0,0,1,0-7.71,8.35,8.35,0,0,1,1.63-2.95,7.1,7.1,0,0,1,2.57-1.87,8.58,8.58,0,0,1,3.43-.65,8.17,8.17,0,0,1,3.44.68,6.84,6.84,0,0,1,2.48,1.9,8.27,8.27,0,0,1,1.49,2.83,11.69,11.69,0,0,1,.5,3.46v1.4H229.25v.58a4.78,4.78,0,0,0,1.22,3.37,4.49,4.49,0,0,0,3.48,1.32,5.06,5.06,0,0,0,2.77-.72,6.26,6.26,0,0,0,1.92-2l2.19,2.16a7.06,7.06,0,0,1-2.88,2.62A9.4,9.4,0,0,1,233.56,639.87Zm0-15.72a4.46,4.46,0,0,0-1.76.34,3.89,3.89,0,0,0-1.37,1,4.3,4.3,0,0,0-.87,1.47,5.53,5.53,0,0,0-.31,1.88V629h8.29v-.34a4.94,4.94,0,0,0-1.06-3.31A3.62,3.62,0,0,0,233.56,624.15Zm12.05,15.31V621.65h3.73v3.43h.17a4.81,4.81,0,0,1,1.58-2.4,4.94,4.94,0,0,1,3.32-1h1v3.6h-1.47a6.63,6.63,0,0,0-3.41.72,2.34,2.34,0,0,0-1.18,2.12v11.37Zm25.89,0a3,3,0,0,1-2.26-.84,3.75,3.75,0,0,1-1-2.14h-.17a4.38,4.38,0,0,1-1.88,2.53,6.14,6.14,0,0,1-3.32.86,5.89,5.89,0,0,1-4.26-1.44,5.13,5.13,0,0,1-1.49-3.87,4.55,4.55,0,0,1,1.93-4,10,10,0,0,1,5.67-1.34H268v-1.51a3.43,3.43,0,0,0-.89-2.53,3.79,3.79,0,0,0-2.77-.89,4.43,4.43,0,0,0-2.57.68,6.14,6.14,0,0,0-1.68,1.75l-2.23-2a7.13,7.13,0,0,1,2.5-2.48,8.05,8.05,0,0,1,4.21-1,7.84,7.84,0,0,1,5.31,1.61,5.8,5.8,0,0,1,1.85,4.62v8.94h1.88v3ZM264,637a5,5,0,0,0,2.88-.77,2.39,2.39,0,0,0,1.13-2.07v-2.57h-3.15q-3.87,0-3.87,2.4v.62a2.1,2.1,0,0,0,.8,1.8A3.63,3.63,0,0,0,264,637Zm18.12,2.43a4,4,0,0,1-2.95-1,3.91,3.91,0,0,1-1-2.86V624.7h-2.77v-3h1.51a1.64,1.64,0,0,0,1.28-.41,2,2,0,0,0,.36-1.34v-3.12h3.36v4.86h3.73v3h-3.73v11.72h3.46v3Zm14.42.41a8.55,8.55,0,0,1-3.43-.65,7.08,7.08,0,0,1-2.57-1.87,8.37,8.37,0,0,1-1.63-2.95,13.44,13.44,0,0,1,0-7.71,8.37,8.37,0,0,1,1.63-2.95,7.1,7.1,0,0,1,2.57-1.87,8.58,8.58,0,0,1,3.43-.65,8.18,8.18,0,0,1,3.44.68,6.83,6.83,0,0,1,2.48,1.9,8.25,8.25,0,0,1,1.49,2.83,11.69,11.69,0,0,1,.5,3.46v1.4H292.2v.58a4.78,4.78,0,0,0,1.22,3.37,4.49,4.49,0,0,0,3.48,1.32,5.06,5.06,0,0,0,2.77-.72,6.26,6.26,0,0,0,1.92-2l2.19,2.16a7.06,7.06,0,0,1-2.88,2.62A9.4,9.4,0,0,1,296.51,639.87Zm0-15.72a4.46,4.46,0,0,0-1.76.34,3.9,3.9,0,0,0-1.37,1,4.3,4.3,0,0,0-.87,1.47,5.53,5.53,0,0,0-.31,1.88V629h8.29v-.34a4.94,4.94,0,0,0-1.06-3.31A3.62,3.62,0,0,0,296.51,624.15Z"/></g><g id="develop"><polygon id="Fill-342" class="cls-5" points="725.98 462.71 789.36 571.8 725.98 680.89 599.21 680.89 535.83 571.8 599.21 462.71 725.98 462.71"/><g id="wrench-screwdriver"><g id="screwdriver"><path id="Rectangle-31" class="cls-1" d="M639.38,573.81c-.17.27-.63,0-1.36-.71s-1-1.22-.78-1.44l17.7-17.7q.33-.33,1.4.75t.74,1.4Z"/><g id="Group-3"><path id="Combined-Shape6" class="cls-1" d="M678.34,542l17.72-17.72q3.23-3.23-1.2-7.66t-7.66-1.2l-17.72,17.72,0,0a2.21,2.21,0,0,1-1.6-.84q-.89-.89-.75-1.52L687,510.85q3.54-3.54,10.35,3.26t3.26,10.35l-19.88,19.88q-.59.17-1.48-.72a2.44,2.44,0,0,1-.88-1.65Z"/><path id="Rectangle-311" class="cls-1" d="M675,538.72q-.26.4-1.37-.71t-.78-1.44l17.7-17.7q.33-.33,1.4.75t.74,1.4Z"/></g><path id="Combined-Shape7" class="cls-1" d="M630.08,587.31l-5.93-5.93,7.59-11.78,10.12,10.12Zm.49-3.27,6.91-4.38L631.81,574l-4.4,6.88Z"/></g><g id="wrench-half"><path id="Combined-Shape8" class="cls-1" d="M701.71,575.42l-1.92-1.92L698.26,575a12.53,12.53,0,0,0-17.44-16.66L666.1,543.65l2.62-2.62,13.06,13.06a16.1,16.1,0,0,1,19.94,21.32Zm-8.18,8.46a16.1,16.1,0,0,1-21.81-19.73l-13.06-13.06,2.45-2.45,14.8,14.8a12.53,12.53,0,0,0,16.89,17l-1.34,1.34Z"/><path id="Combined-Shape9" class="cls-1" d="M699.52,577.66l-11.23-11.23q-2.63-2.63-4.74-.52t.52,4.74L695.41,582l-.14.15-1.76,1.7-13-13q-3-3,1.16-7.16t7.16-1.16l12.88,12.88L700,577.2Z"/></g><g id="wrench-half1"><path id="Combined-Shape10" class="cls-1" d="M635.07,508.78,637,510.7l-1.53,1.53a12.53,12.53,0,0,1,16.66,17.44l14.71,14.71,2.62-2.62-13.06-13.06a16.1,16.1,0,0,0-21.32-19.94ZM626.61,517a16.1,16.1,0,0,0,19.73,21.81l13.06,13.06,2.45-2.45L647,534.56a12.53,12.53,0,0,1-17-16.89L628.67,519Z"/><path id="Combined-Shape11" class="cls-1" d="M632.83,511l11.23,11.23q2.63,2.63.52,4.74t-4.74-.52L628.5,515.08l-.15.14-1.7,1.76,13,13q3,3,7.16-1.16t1.16-7.16l-12.88-12.88-1.77,1.77Z"/></g></g><path id="Develop-2" data-name="Develop" class="cls-1" d="M600.07,614.66h8.46a11,11,0,0,1,4.16.75,8.39,8.39,0,0,1,3.19,2.24,10.28,10.28,0,0,1,2,3.73,19.32,19.32,0,0,1,0,10.45,10.26,10.26,0,0,1-2,3.73,8.38,8.38,0,0,1-3.19,2.24,11,11,0,0,1-4.16.75h-8.46Zm8.46,20.48a5.77,5.77,0,0,0,4.32-1.68,6.77,6.77,0,0,0,1.64-4.93V624.7a6.77,6.77,0,0,0-1.64-4.93,5.77,5.77,0,0,0-4.32-1.68h-4.59v17.06ZM630.18,639a8.55,8.55,0,0,1-3.43-.65,7.12,7.12,0,0,1-2.57-1.87,8.37,8.37,0,0,1-1.63-2.95,13.45,13.45,0,0,1,0-7.71,8.38,8.38,0,0,1,1.63-2.95,7.12,7.12,0,0,1,2.57-1.87,8.55,8.55,0,0,1,3.43-.65,8.16,8.16,0,0,1,3.44.68,6.83,6.83,0,0,1,2.48,1.9,8.25,8.25,0,0,1,1.49,2.82,11.7,11.7,0,0,1,.5,3.46v1.41H625.86v.58a4.78,4.78,0,0,0,1.22,3.37,4.5,4.5,0,0,0,3.48,1.32,5.06,5.06,0,0,0,2.77-.72,6.25,6.25,0,0,0,1.92-2l2.19,2.16a7.07,7.07,0,0,1-2.88,2.62A9.4,9.4,0,0,1,630.18,639Zm0-15.72a4.44,4.44,0,0,0-1.76.34,3.92,3.92,0,0,0-1.37,1,4.35,4.35,0,0,0-.87,1.47,5.53,5.53,0,0,0-.31,1.88v.24h8.29v-.34a4.94,4.94,0,0,0-1.06-3.31A3.62,3.62,0,0,0,630.18,623.26Zm15.62,15.31-6.06-17.81h3.7l2.71,8.12,1.82,6.23h.21l1.82-6.23,2.77-8.12h3.56l-6.13,17.81Zm20.38.41a8.56,8.56,0,0,1-3.43-.65,7.12,7.12,0,0,1-2.57-1.87,8.37,8.37,0,0,1-1.63-2.95,13.45,13.45,0,0,1,0-7.71,8.38,8.38,0,0,1,1.63-2.95,7.12,7.12,0,0,1,2.57-1.87,8.56,8.56,0,0,1,3.43-.65,8.16,8.16,0,0,1,3.44.68,6.85,6.85,0,0,1,2.48,1.9,8.27,8.27,0,0,1,1.49,2.82,11.65,11.65,0,0,1,.5,3.46v1.41H661.85v.58a4.79,4.79,0,0,0,1.22,3.37,4.5,4.5,0,0,0,3.48,1.32,5.06,5.06,0,0,0,2.77-.72,6.27,6.27,0,0,0,1.92-2l2.19,2.16a7.07,7.07,0,0,1-2.88,2.62A9.4,9.4,0,0,1,666.17,639Zm0-15.72a4.44,4.44,0,0,0-1.76.34,3.92,3.92,0,0,0-1.37,1,4.35,4.35,0,0,0-.87,1.47,5.53,5.53,0,0,0-.31,1.88v.24h8.29v-.34a4.94,4.94,0,0,0-1.06-3.31A3.62,3.62,0,0,0,666.17,623.26ZM682,638.57a3.81,3.81,0,0,1-2.86-1,3.77,3.77,0,0,1-.94-2.72V613.22H682v22.3h2.46v3ZM695,639a8.5,8.5,0,0,1-3.37-.65,7.08,7.08,0,0,1-2.59-1.87,8.58,8.58,0,0,1-1.64-2.95,13,13,0,0,1,0-7.71,8.59,8.59,0,0,1,1.64-2.95A7.08,7.08,0,0,1,691.6,621a9.07,9.07,0,0,1,6.75,0,7.08,7.08,0,0,1,2.59,1.87,8.62,8.62,0,0,1,1.64,2.95,13.07,13.07,0,0,1,0,7.71,8.61,8.61,0,0,1-1.64,2.95,7.08,7.08,0,0,1-2.59,1.87A8.5,8.5,0,0,1,695,639Zm0-3.08a4.14,4.14,0,0,0,3.08-1.18,4.86,4.86,0,0,0,1.16-3.55v-3a4.87,4.87,0,0,0-1.16-3.55,4.61,4.61,0,0,0-6.16,0,4.86,4.86,0,0,0-1.17,3.55v3a4.86,4.86,0,0,0,1.17,3.55A4.13,4.13,0,0,0,695,635.9Zm12.33-15.14H711v2.95h.17a4.87,4.87,0,0,1,1.9-2.48,5.48,5.48,0,0,1,3.1-.87,6.18,6.18,0,0,1,5.24,2.45,13.68,13.68,0,0,1,0,13.74,6.18,6.18,0,0,1-5.24,2.45,5.4,5.4,0,0,1-3.1-.89,5,5,0,0,1-1.9-2.47H711v9.8H707.3Zm7.77,15a4.06,4.06,0,0,0,3.12-1.25,4.66,4.66,0,0,0,1.16-3.31v-3.08a4.65,4.65,0,0,0-1.16-3.3,4.05,4.05,0,0,0-3.12-1.25,4.79,4.79,0,0,0-2.88.84,2.6,2.6,0,0,0-1.16,2.21v6.1a2.6,2.6,0,0,0,1.16,2.21A4.79,4.79,0,0,0,715.07,635.76Z"/></g><g id="envision"><polygon id="Fill-34-2" data-name="Fill-34" class="cls-6" points="725.01 222.67 787.34 330.02 725.01 437.38 600.35 437.38 538.02 330.02 600.35 222.67 725.01 222.67"/><g id="Bulb"><path id="Fill-50" class="cls-1" d="M653.28,321.25h17.93V311.16l.93-.47a22,22,0,1,0-19.79,0l.93.47Zm21.32,3.4h-24.7V313.22a25.38,25.38,0,1,1,24.7,0Z"/><path id="Fill-51" class="cls-1" d="M652.25,332h21.49a2.59,2.59,0,0,0,0-3.93H652.25a2.59,2.59,0,0,0,0,3.93Z"/><path id="Fill-52" class="cls-1" d="M653.46,339.86H672a2.5,2.5,0,0,0,0-3.93H653.46a2.6,2.6,0,0,0,0,3.93Z"/><path id="Fill-53" class="cls-1" d="M656.54,347.73h12.75a3,3,0,0,0,0-3.93H656.54a2.64,2.64,0,0,0,0,3.93Z"/></g><path id="Envision-2" data-name="Envision" class="cls-1" d="M601.28,396.23V372.75h15v3.36H605.08v6.22h10.19v3.36H605.08v7.16h11.23v3.36Zm19.67,0V378.74h3.67v2.89h.17a5.76,5.76,0,0,1,1.73-2.35,4.9,4.9,0,0,1,3.18-.94,5.19,5.19,0,0,1,4.19,1.77,7.56,7.56,0,0,1,1.5,5v11.1h-3.67V385.6q0-4.1-3.3-4.1a5.36,5.36,0,0,0-1.4.18,4,4,0,0,0-1.23.55,2.76,2.76,0,0,0-.86.94,2.71,2.71,0,0,0-.32,1.35v11.7Zm23,0-6-17.49h3.63l2.66,8,1.78,6.12h.2l1.78-6.12,2.72-8h3.5l-6,17.49Zm15.27-20.61a2.23,2.23,0,0,1-1.66-.54,1.9,1.9,0,0,1-.52-1.38v-.57a1.9,1.9,0,0,1,.52-1.38,2.23,2.23,0,0,1,1.66-.54,2.17,2.17,0,0,1,1.65.54,1.94,1.94,0,0,1,.5,1.38v.57a1.94,1.94,0,0,1-.5,1.38A2.17,2.17,0,0,1,659.25,375.61Zm-1.85,3.13h3.67v17.49H657.4Zm14.46,17.89a9,9,0,0,1-4.17-.87,9.15,9.15,0,0,1-2.93-2.42l2.35-2.15a7.54,7.54,0,0,0,2.17,1.83,5.67,5.67,0,0,0,2.77.66,3.85,3.85,0,0,0,2.4-.62,2.08,2.08,0,0,0,.79-1.73,2,2,0,0,0-.55-1.43,3.14,3.14,0,0,0-1.93-.76l-1.61-.2a8.27,8.27,0,0,1-4.22-1.56,4.4,4.4,0,0,1-1.53-3.65,5.23,5.23,0,0,1,.47-2.27,4.74,4.74,0,0,1,1.33-1.68,6.13,6.13,0,0,1,2.05-1.06,8.89,8.89,0,0,1,2.64-.37,8.7,8.7,0,0,1,3.85.74,8.84,8.84,0,0,1,2.67,2.05l-2.25,2.15a5.9,5.9,0,0,0-1.77-1.4,5.2,5.2,0,0,0-2.51-.59,3.44,3.44,0,0,0-2.24.61,2,2,0,0,0-.72,1.58,1.81,1.81,0,0,0,.64,1.51,4.58,4.58,0,0,0,2.05.74l1.61.2a7.73,7.73,0,0,1,4.22,1.7,4.44,4.44,0,0,1,1.33,3.38,5.3,5.3,0,0,1-.49,2.3,5.06,5.06,0,0,1-1.4,1.77,6.53,6.53,0,0,1-2.19,1.14A9.47,9.47,0,0,1,671.86,396.63Zm12.91-21a2.23,2.23,0,0,1-1.66-.54,1.9,1.9,0,0,1-.52-1.38v-.57a1.9,1.9,0,0,1,.52-1.38,2.23,2.23,0,0,1,1.66-.54,2.17,2.17,0,0,1,1.65.54,1.94,1.94,0,0,1,.5,1.38v.57a1.94,1.94,0,0,1-.5,1.38A2.17,2.17,0,0,1,684.77,375.61Zm-1.85,3.13h3.67v17.49h-3.67Zm15.77,17.89a8.35,8.35,0,0,1-3.31-.64,6.94,6.94,0,0,1-2.54-1.83,8.42,8.42,0,0,1-1.61-2.89,12.8,12.8,0,0,1,0-7.57,8.42,8.42,0,0,1,1.61-2.89,6.94,6.94,0,0,1,2.54-1.83,8.9,8.9,0,0,1,6.62,0,6.94,6.94,0,0,1,2.54,1.83,8.42,8.42,0,0,1,1.61,2.89,12.8,12.8,0,0,1,0,7.57,8.42,8.42,0,0,1-1.61,2.89A6.94,6.94,0,0,1,702,396,8.35,8.35,0,0,1,698.69,396.63Zm0-3a4.06,4.06,0,0,0,3-1.16,4.77,4.77,0,0,0,1.14-3.48v-3a4.77,4.77,0,0,0-1.14-3.48,4.53,4.53,0,0,0-6.05,0,4.77,4.77,0,0,0-1.14,3.48v3a4.77,4.77,0,0,0,1.14,3.48A4.06,4.06,0,0,0,698.69,393.6Zm12.11,2.62V378.74h3.67v2.89h.17a5.76,5.76,0,0,1,1.73-2.35,4.9,4.9,0,0,1,3.18-.94,5.19,5.19,0,0,1,4.19,1.77,7.56,7.56,0,0,1,1.5,5v11.1h-3.67V385.6q0-4.1-3.3-4.1a5.36,5.36,0,0,0-1.4.18,4,4,0,0,0-1.23.55,2.76,2.76,0,0,0-.86.94,2.71,2.71,0,0,0-.32,1.35v11.7Z"/></g><g id="discover"><polygon id="Fill-344" class="cls-7" points="516.84 102 580.22 211.09 516.84 320.18 390.07 320.18 326.69 211.09 390.07 102 516.84 102"/><g id="telescope"><path id="Combined-Shape12" class="cls-1" d="M403.49,162.81V149.44h22v13.38ZM484,147.94v16.37h0q-.38,1.39-1.44,1.39t-1.36-1.39h-.1V148h0q.33-1.39,1.42-1.39T484,148Zm2.93-1.38h0q0-1.58,1.42-1.58h13.22q1.42,0,1.42,1.58h4.42c1.48,0,3.37,4.38,3.37,9.56s-1.87,9.56-3.37,9.56H503q0,1.58-1.42,1.58H488.38q-1.42,0-1.42-1.58h0ZM478.17,148V164.3H428.38V148Zm-77.6-.51v17.36q-.17.88-1.39.88-1.54,0-1.54-1.39V148q0-1.39,1.54-1.39Q400.4,146.56,400.56,147.44Zm102.49,2v13.38H506c1.45,0,2.25-3.34,2.25-6.69s-.78-6.69-2.25-6.69Zm-96.64,3v7.43h16.11v-7.43Zm24.89-1.49v10.4h43.93v-10.4Zm58.57-3V164.3h10.25V148Z"/><path id="Rectangle4" class="cls-1" d="M451.32,170.16q0-1.4,1.45-1.4t1.45,1.4v55.09a1.45,1.45,0,1,1-2.9,0Z"/><g id="Rectangle5"><path id="Shape" class="cls-1" d="M450.79,168.67a1.45,1.45,0,0,1,2.51,1.45l-27.55,47.71a1.45,1.45,0,1,1-2.51-1.45Z"/></g><g id="Rectangle6"><path id="Shape-2" data-name="Shape" class="cls-1" d="M456.19,168.67a1.45,1.45,0,0,0-2.51,1.45l27.55,47.71a1.45,1.45,0,1,0,2.51-1.45Z"/></g><ellipse id="Oval-3" class="cls-1" cx="452.77" cy="164.3" rx="5.8" ry="5.95"/></g><path id="Discover-2" data-name="Discover" class="cls-1" d="M389.19,254.39h8.34a10.92,10.92,0,0,1,4.1.74,8.27,8.27,0,0,1,3.14,2.2,10.09,10.09,0,0,1,2,3.66,18.86,18.86,0,0,1,0,10.24,10.08,10.08,0,0,1-2,3.66,8.27,8.27,0,0,1-3.14,2.2,10.92,10.92,0,0,1-4.1.74h-8.34Zm8.34,20.08a5.7,5.7,0,0,0,4.25-1.64A6.62,6.62,0,0,0,403.4,268v-3.76a6.62,6.62,0,0,0-1.62-4.83,5.7,5.7,0,0,0-4.25-1.64H393v16.72Zm16.3-17.22a2.25,2.25,0,0,1-1.67-.54,1.89,1.89,0,0,1-.52-1.38v-.57a1.89,1.89,0,0,1,.52-1.38,2.25,2.25,0,0,1,1.67-.54,2.19,2.19,0,0,1,1.65.54,1.93,1.93,0,0,1,.51,1.38v.57a1.93,1.93,0,0,1-.51,1.38A2.19,2.19,0,0,1,413.83,257.24ZM412,260.37h3.68v17.46H412Zm14.52,17.86a9,9,0,0,1-4.19-.87,9.17,9.17,0,0,1-2.94-2.42l2.36-2.15a7.55,7.55,0,0,0,2.18,1.83,5.71,5.71,0,0,0,2.78.65,3.89,3.89,0,0,0,2.41-.62,2.07,2.07,0,0,0,.79-1.73,2,2,0,0,0-.56-1.43,3.15,3.15,0,0,0-1.94-.75l-1.62-.2a8.34,8.34,0,0,1-4.24-1.56,4.38,4.38,0,0,1-1.54-3.64,5.21,5.21,0,0,1,.47-2.27,4.75,4.75,0,0,1,1.33-1.68,6.16,6.16,0,0,1,2.06-1.06,9,9,0,0,1,2.65-.37,8.77,8.77,0,0,1,3.87.74,8.88,8.88,0,0,1,2.68,2l-2.26,2.15a5.91,5.91,0,0,0-1.77-1.39,5.25,5.25,0,0,0-2.51-.59,3.47,3.47,0,0,0-2.25.61,2,2,0,0,0-.73,1.58,1.8,1.8,0,0,0,.64,1.51,4.61,4.61,0,0,0,2.06.74l1.62.2a7.79,7.79,0,0,1,4.24,1.7,4.42,4.42,0,0,1,1.33,3.37,5.26,5.26,0,0,1-.49,2.3,5,5,0,0,1-1.4,1.76,6.57,6.57,0,0,1-2.19,1.14A9.53,9.53,0,0,1,426.49,278.23Zm17.89,0a8.47,8.47,0,0,1-3.38-.64,6.7,6.7,0,0,1-2.5-1.83,8.28,8.28,0,0,1-1.55-2.89,13.48,13.48,0,0,1,0-7.55,8.28,8.28,0,0,1,1.55-2.89,6.7,6.7,0,0,1,2.5-1.83,8.49,8.49,0,0,1,3.38-.64,7.39,7.39,0,0,1,4.32,1.18,6.77,6.77,0,0,1,2.46,3.12l-3,1.41a3.78,3.78,0,0,0-1.3-1.93,3.88,3.88,0,0,0-2.45-.72,3.71,3.71,0,0,0-3.05,1.26,5,5,0,0,0-1,3.27v3.12a5,5,0,0,0,1,3.27,3.71,3.71,0,0,0,3.05,1.26,4,4,0,0,0,2.58-.79,5.54,5.54,0,0,0,1.54-2.1l2.8,1.48a6.9,6.9,0,0,1-2.63,3.29A7.69,7.69,0,0,1,444.38,278.23Zm17.12,0a8.42,8.42,0,0,1-3.33-.64,7,7,0,0,1-2.55-1.83,8.37,8.37,0,0,1-1.62-2.89,12.71,12.71,0,0,1,0-7.55,8.37,8.37,0,0,1,1.62-2.89,7,7,0,0,1,2.55-1.83,9,9,0,0,1,6.65,0,7,7,0,0,1,2.55,1.83,8.42,8.42,0,0,1,1.62,2.89,12.71,12.71,0,0,1,0,7.55,8.42,8.42,0,0,1-1.62,2.89,7,7,0,0,1-2.55,1.83A8.42,8.42,0,0,1,461.5,278.23Zm0-3a4.08,4.08,0,0,0,3-1.16,4.75,4.75,0,0,0,1.15-3.47v-3a4.75,4.75,0,0,0-1.15-3.48,4.56,4.56,0,0,0-6.08,0,4.75,4.75,0,0,0-1.15,3.48v3a4.74,4.74,0,0,0,1.15,3.47A4.08,4.08,0,0,0,461.5,275.21Zm15.7,2.62-6-17.46h3.65l2.67,8,1.79,6.11h.2l1.79-6.11,2.73-8h3.51l-6,17.46Zm20.08.4a8.47,8.47,0,0,1-3.38-.64,7,7,0,0,1-2.53-1.83,8.19,8.19,0,0,1-1.6-2.89,13.12,13.12,0,0,1,0-7.55,8.19,8.19,0,0,1,1.6-2.89,7,7,0,0,1,2.53-1.83,8.5,8.5,0,0,1,3.38-.64,8.07,8.07,0,0,1,3.39.67,6.72,6.72,0,0,1,2.45,1.86,8.06,8.06,0,0,1,1.47,2.77,11.39,11.39,0,0,1,.49,3.39V270H493v.57a4.67,4.67,0,0,0,1.2,3.31,4.44,4.44,0,0,0,3.43,1.29,5,5,0,0,0,2.73-.7,6.16,6.16,0,0,0,1.89-1.91l2.16,2.12a7,7,0,0,1-2.84,2.57A9.31,9.31,0,0,1,497.28,278.23Zm0-15.41a4.42,4.42,0,0,0-1.74.33,3.88,3.88,0,0,0-1.35.94,4.23,4.23,0,0,0-.86,1.44,5.39,5.39,0,0,0-.3,1.85v.23h8.17v-.34a4.82,4.82,0,0,0-1-3.24A3.57,3.57,0,0,0,497.28,262.82Zm11.88,15V260.37h3.68v3.36H513a4.71,4.71,0,0,1,1.55-2.35,4.89,4.89,0,0,1,3.27-1h1v3.53h-1.45a6.55,6.55,0,0,0-3.36.7,2.29,2.29,0,0,0-1.17,2.08v11.15Z"/></g><g id="culture"><polygon id="Fill-345" class="cls-8" points="516.84 343.5 580.22 452.6 516.84 561.69 390.07 561.69 326.69 452.6 390.07 343.5 516.84 343.5"/><g id="Social"><g id="person"><path id="_Path_" data-name="&lt;Path&gt;" class="cls-1" d="M436.23,412.14a17.26,17.26,0,0,1,17.31-17.3,1.75,1.75,0,1,1,0,3.51,13.75,13.75,0,0,0-5.63,26.33,1.76,1.76,0,0,1-.27,3.32l-1,.24-2.28.52c-.91.21-1.62.38-2.32.56-4.7,1.22-7.57,2.67-9.08,4.94s-2.22,8.07-2.43,16.66c-.09,3.48-.08,6.73,0,11.68.05,3.8,0,3.71,0,4.69a1.75,1.75,0,0,1-3.51,0c0-1,0-.87,0-4.64-.07-5-.07-8.28,0-11.81.23-9.36,1.07-15.6,3-18.52,2.12-3.18,5.65-5,11.12-6.39l1.47-.36A17.32,17.32,0,0,1,436.23,412.14Z"/><g id="XMLID_4558_1" data-name="XMLID 4558 1"><path id="Shape-3" data-name="Shape" class="cls-1" d="M471.1,412.14a17.26,17.26,0,0,0-17.31-17.3,1.75,1.75,0,1,0,0,3.51,13.75,13.75,0,0,1,5.63,26.33,1.76,1.76,0,0,0,.27,3.32l1,.24,2.28.52c.91.21,1.62.38,2.32.56,4.7,1.22,7.57,2.67,9.08,4.94s2.22,8.07,2.43,16.66c.09,3.48.08,6.73,0,11.68-.05,3.8,0,3.71,0,4.69a1.75,1.75,0,0,0,3.51,0c0-1,0-.87,0-4.64.07-5,.07-8.28,0-11.81-.23-9.36-1.07-15.6-3-18.52-2.12-3.18-5.65-5-11.12-6.39l-1.47-.36A17.32,17.32,0,0,0,471.1,412.14Z"/></g></g><g id="half-person"><path id="XMLID_4558_2" data-name="XMLID 4558 2" class="cls-1" d="M415.82,406.58a17.24,17.24,0,0,1,17.47-17.1,1.75,1.75,0,0,1,0,3.51,13.73,13.73,0,0,0-14,13.59,13.51,13.51,0,0,0,8.26,12.36,1.75,1.75,0,0,1-.27,3.33l-1,.24L424,423c-.92.21-1.64.38-2.34.55-4.75,1.2-7.66,2.64-9.18,4.88s-2.23,8-2.45,16.42c-.09,3.43-.08,6.65,0,11.53.05,3.75.05,3.66.05,4.63a1.75,1.75,0,1,1-3.51,0c0-.94,0-.86,0-4.58-.07-4.93-.08-8.18,0-11.67.23-9.25,1.08-15.42,3.06-18.31,2.14-3.14,5.7-4.9,11.22-6.3l1.45-.35A17,17,0,0,1,415.82,406.58Z"/><g id="XMLID_4558_3" data-name="XMLID 4558 3"><path id="Shape-4" data-name="Shape" class="cls-1" d="M433.29,389.48a1.75,1.75,0,1,0,0,3.51c4.69,0,7.68,1,9.38,2.73a4.39,4.39,0,0,1,1.41,2.67,1.75,1.75,0,1,0,3.51,0C447.58,393.87,443.17,389.48,433.29,389.48Z"/></g></g><g id="half-person1"><path id="XMLID_4558_4" data-name="XMLID 4558 4" class="cls-1" d="M491.25,406.78a17.26,17.26,0,0,0-17.31-17.3,1.75,1.75,0,1,0,0,3.51,13.75,13.75,0,0,1,5.63,26.33,1.76,1.76,0,0,0,.27,3.32l1,.24,2.28.52c.91.21,1.62.38,2.32.56,4.7,1.22,7.57,2.67,9.08,4.94s2.22,8.07,2.43,16.66c.09,3.48.08,6.73,0,11.68-.05,3.8,0,3.71,0,4.69a1.75,1.75,0,0,0,3.51,0c0-1,0-.87,0-4.64.07-5,.07-8.28,0-11.81-.23-9.36-1.07-15.6-3-18.52-2.12-3.18-5.65-5-11.12-6.39l-1.47-.36A17.32,17.32,0,0,0,491.25,406.78Z"/><g id="XMLID_4558_5" data-name="XMLID 4558 5"><path id="Shape-5" data-name="Shape" class="cls-1" d="M473.69,389.48a1.75,1.75,0,1,1,0,3.51c-4.34,0-7.1,1-8.66,2.69a4.56,4.56,0,0,0-1.33,2.71,1.75,1.75,0,1,1-3.51,0,7.92,7.92,0,0,1,2.28-5.12C464.75,390.86,468.44,389.48,473.69,389.48Z"/></g></g></g><path id="Culture-2" data-name="Culture" class="cls-1" d="M408.37,519.6a9,9,0,0,1-7.26-3.11q-2.63-3.11-2.63-9a18.14,18.14,0,0,1,.68-5.2,10.63,10.63,0,0,1,2-3.79,8.2,8.2,0,0,1,3.12-2.33,10.38,10.38,0,0,1,4.14-.79,9.29,9.29,0,0,1,5.15,1.34,8.93,8.93,0,0,1,3.26,4l-3.21,1.75a5.8,5.8,0,0,0-1.87-2.67,5.24,5.24,0,0,0-3.33-1,5.3,5.3,0,0,0-4.29,1.85,7.69,7.69,0,0,0-1.55,5.1v3.56a7.68,7.68,0,0,0,1.55,5.1,6,6,0,0,0,7.75.76,6.49,6.49,0,0,0,2-2.8l3.07,1.85a9.56,9.56,0,0,1-3.31,4A9,9,0,0,1,408.37,519.6Zm22.92-3.29h-.14a6.37,6.37,0,0,1-.62,1.24,4.18,4.18,0,0,1-1,1.06,4.71,4.71,0,0,1-1.42.72,6.16,6.16,0,0,1-1.91.27,5.29,5.29,0,0,1-4.24-1.75,7.45,7.45,0,0,1-1.5-5V501.74h3.68v10.64q0,4.06,3.38,4.06a5.2,5.2,0,0,0,1.38-.19,3.78,3.78,0,0,0,1.2-.55,2.83,2.83,0,0,0,.84-.94,2.7,2.7,0,0,0,.32-1.34V501.74H435V519.2h-3.68ZM444,519.2a3.76,3.76,0,0,1-2.82-1,3.67,3.67,0,0,1-.93-2.67V494.35h3.68v21.86h2.43v3Zm10.57,0a3.91,3.91,0,0,1-2.9-1,3.82,3.82,0,0,1-1-2.8V504.73h-2.73v-3h1.49a1.63,1.63,0,0,0,1.27-.4A2,2,0,0,0,451,500V497h3.31v4.77H458v3h-3.68v11.48h3.41v3Zm18.09-2.89h-.14a6.37,6.37,0,0,1-.62,1.24,4.18,4.18,0,0,1-1,1.06,4.69,4.69,0,0,1-1.42.72,6.16,6.16,0,0,1-1.91.27,5.28,5.28,0,0,1-4.24-1.75,7.45,7.45,0,0,1-1.5-5V501.74h3.68v10.64q0,4.06,3.38,4.06a5.2,5.2,0,0,0,1.38-.19,3.78,3.78,0,0,0,1.2-.55,2.83,2.83,0,0,0,.84-.94,2.7,2.7,0,0,0,.32-1.34V501.74h3.68V519.2h-3.68Zm8.95,2.89V501.74h3.68v3.36h.17a4.71,4.71,0,0,1,1.55-2.35,4.9,4.9,0,0,1,3.27-1h1v3.53h-1.45a6.55,6.55,0,0,0-3.36.7,2.28,2.28,0,0,0-1.16,2.08V519.2Zm19.65.4a8.49,8.49,0,0,1-3.38-.64,7,7,0,0,1-2.53-1.83,8.21,8.21,0,0,1-1.6-2.89,13.08,13.08,0,0,1,0-7.55,8.19,8.19,0,0,1,1.6-2.89,7,7,0,0,1,2.53-1.83,8.47,8.47,0,0,1,3.38-.64,8.07,8.07,0,0,1,3.39.67,6.74,6.74,0,0,1,2.45,1.86,8.09,8.09,0,0,1,1.47,2.77A11.38,11.38,0,0,1,509,510v1.38H497V512a4.67,4.67,0,0,0,1.2,3.31,4.44,4.44,0,0,0,3.43,1.29,5,5,0,0,0,2.73-.7,6.17,6.17,0,0,0,1.89-1.91l2.16,2.12a6.94,6.94,0,0,1-2.84,2.57A9.31,9.31,0,0,1,501.24,519.6Zm0-15.41a4.42,4.42,0,0,0-1.74.34,3.86,3.86,0,0,0-1.35.94,4.21,4.21,0,0,0-.86,1.44,5.4,5.4,0,0,0-.3,1.85V509h8.17v-.34a4.81,4.81,0,0,0-1-3.24A3.57,3.57,0,0,0,501.24,504.19Z"/></g></g></g></g></g></svg>