<?xml version="1.0" encoding="UTF-8"?>
<svg width="50px" height="50px" viewBox="0 0 50 50" version="1.1" xmlns="http://www.w3.org/2000/svg" xmlns:xlink="http://www.w3.org/1999/xlink">
    <!-- Generator: Sketch 50.2 (55047) - http://www.bohemiancoding.com/sketch -->
    <title>cloud-innovate-wheel-two-rings</title>
    <desc>Created with Sketch.</desc>
    <defs></defs>
    <g id="new-hexes-and-icons" stroke="none" stroke-width="1" fill="none" fill-rule="evenodd">
        <g id="updated-colors" transform="translate(-993.000000, -946.000000)">
            <g id="cloud-innovate-wheel-two-rings" transform="translate(993.000000, 946.000000)">
                <g id="outer-ring">
                    <path d="M13.5969798,2.74612965 C17.0160071,0.990674082 20.8923114,0 25,0 C38.8071187,0 50,11.1928813 50,25 C50,25.0126114 49.9999907,25.0252207 49.999972,25.0378277 L48.2251149,26.1079364 L46.2857119,25.0255463 C46.2802186,13.2941687 36.7683757,3.78571429 25.0357143,3.78571429 C21.6228081,3.78571429 18.39782,4.59028749 15.5400766,6.02010731 L15.6061868,3.98944409 L13.5969798,2.74612965 Z M12.4081896,3.39792517 L14.3934471,4.63426919 L14.3159288,6.68374362 C8.01659704,10.3712691 3.78571429,17.2094039 3.78571429,25.0357143 C3.78571429,32.3506632 7.48177795,38.8023502 13.1082517,42.6251217 L11.1621526,43.6657849 L11.097541,45.7810516 C4.40523463,41.2950407 0,33.6619692 0,25 C0,15.7844191 4.98633219,7.73345849 12.4081896,3.39792517 Z M49.9590157,26.4436117 C49.2111742,39.5789399 38.3225716,50 25,50 C20.3454026,50 15.9879055,48.7279622 12.2561756,46.5125533 L12.3269573,44.3936357 L14.2762641,43.3644082 C17.4320486,45.2209416 21.1095359,46.2857143 25.0357143,46.2857143 C36.3215776,46.2857143 45.5525462,37.4876644 46.2441282,26.3760566 L48.249086,27.4812398 L49.9590157,26.4436117 Z" id="Combined-Shape" fill="#000000"></path>
                    <g id="TTT" transform="translate(0.716846, 2.449223)"></g>
                </g>
                <g id="inner-ring-4" transform="translate(5.284553, 5.284553)">
                    <g id="advise" transform="translate(7.368684, 0.000000)" fill="#C7C7C7">
                        <path d="M0.0230333158,4.40196863 C3.68843066,1.47539704 7.81473354,0.0135493656 12.401942,0.0164256138 C16.9891504,0.0193018619 21.0982129,1.48114953 24.7291295,4.40196863 L24.3829809,6.40626324 L22.483225,7.206572 C19.4373914,4.8323576 16.0769637,3.6452504 12.401942,3.6452504 C8.72692018,3.6452504 5.34856892,4.8323576 2.2668882,7.206572 L0.405254523,6.40626324 L0.0230333158,4.40196863 Z" id="Rectangle"></path>
                    </g>
                    <g id="move" transform="translate(32.174710, 6.941216)">
                        <path d="M-8.74771579,13.5148803 C-5.08231844,10.5883087 -0.956015563,9.12646102 3.63119286,9.12933727 C8.21840128,9.13221352 12.3274638,10.5940612 15.9583804,13.5148803 L15.6122318,15.5191749 L13.7124759,16.3194837 C10.6666423,13.9452693 7.30621464,12.7581621 3.63119286,12.7581621 C-0.0438289243,12.7581621 -3.42218018,13.9452693 -6.50386091,16.3194837 L-8.36549458,15.5191749 L-8.74771579,13.5148803 Z" id="Rectangle" fill="#C7C7C7" transform="translate(3.605332, 12.724408) rotate(90.000000) translate(-3.605332, -12.724408) "></path>
                        <g id="innovate" transform="translate(5.136100, 12.769027) rotate(93.000000) translate(-5.136100, -12.769027) translate(1.071060, 11.752767)"></g>
                    </g>
                    <g id="manage" transform="translate(0.000000, 6.941216)">
                        <path d="M-8.74771579,13.5148803 C-5.08231844,10.5883087 -0.956015563,9.12646102 3.63119286,9.12933727 C8.21840128,9.13221352 12.3274638,10.5940612 15.9583804,13.5148803 L15.6122318,15.5191749 L13.7124759,16.3194837 C10.6666423,13.9452693 7.30621464,12.7581621 3.63119286,12.7581621 C-0.0438289243,12.7581621 -3.42218018,13.9452693 -6.50386091,16.3194837 L-8.36549458,15.5191749 L-8.74771579,13.5148803 Z" id="Rectangle" fill="#C7C7C7" transform="translate(3.605332, 12.724408) scale(-1, 1) rotate(90.000000) translate(-3.605332, -12.724408) "></path>
                        <g transform="translate(2.296709, 12.848351) rotate(-87.000000) translate(-2.296709, -12.848351) translate(-0.752072, 11.832091)"></g>
                    </g>
                    <g id="build" transform="translate(7.312434, 32.195353)">
                        <path d="M0.00928336352,4.38554725 C3.63099214,1.45897566 7.73545073,-0.00287201212 12.3226592,4.23602184e-06 C16.9098676,0.00288048416 21.0189301,1.46472816 24.6498467,4.38554725 L24.3036981,6.38984186 L22.4039422,7.19015062 C19.0733135,4.81536109 15.7392368,3.62796632 12.4017119,3.62796632 C9.06418711,3.62796632 5.69190346,4.81536109 2.28486098,7.19015062 L0.325971715,6.38984186 L0.00928336352,4.38554725 Z" id="Rectangle" fill="#C7C7C7" transform="translate(12.329565, 3.595075) scale(1, -1) translate(-12.329565, -3.595075) "></path>
                        <g transform="translate(12.520893, 5.005369) rotate(-2.000000) translate(-12.520893, -5.005369) translate(8.049348, 3.989109)"></g>
                    </g>
                </g>
                <g id="gm-hexes-color" transform="translate(11.788618, 10.975610)" fill-rule="nonzero">
                    <g id="learn" transform="translate(0.000000, 4.684999)" fill="#FB565D">
                        <polygon id="Fill-34" points="7.45568733 0 9.94085996 4.28755414 7.45568733 8.57510829 2.48517264 8.57510829 0 4.28755414 2.48517264 0"></polygon>
                    </g>
                    <g id="reason" transform="translate(8.260910, 18.983371)" fill="#F05E96">
                        <polygon id="Fill-26" points="7.45568733 0 9.94085996 4.28755414 7.45568733 8.57510829 2.48517264 8.57510829 0 4.28755414 2.48517264 0"></polygon>
                    </g>
                    <g id="operate" transform="translate(0.000000, 14.176684)" fill="#28AC53">
                        <polygon id="Fill-34" points="7.45568733 0 9.94085996 4.28755414 7.45568733 8.57510829 2.48517264 8.57510829 0 4.28755414 2.48517264 0"></polygon>
                    </g>
                    <g id="develop" transform="translate(16.461078, 14.176684)" fill="#B27BFF">
                        <polygon id="Fill-34" points="7.45568733 0 9.94085996 4.28755414 7.45568733 8.57510829 2.48517264 8.57510829 0 4.28755414 2.48517264 0"></polygon>
                    </g>
                    <g id="think" transform="translate(16.461078, 4.684999)" fill="#FAB62F">
                        <polygon id="Fill-34" points="7.45568733 0 9.94085996 4.28755414 7.45568733 8.57510829 2.48517264 8.57510829 0 4.28755414 2.48517264 0"></polygon>
                    </g>
                    <g id="discover" transform="translate(8.260910, 0.000000)" fill="#00A8A4">
                        <polygon id="Fill-34" points="7.45568733 0 9.94085996 4.28755414 7.45568733 8.57510829 2.48517264 8.57510829 0 4.28755414 2.48517264 0"></polygon>
                    </g>
                    <g id="culture" transform="translate(8.260910, 9.491685)" fill="#4B96FF">
                        <polygon id="Fill-34" points="7.45568733 0 9.94085996 4.28755414 7.45568733 8.57510829 2.48517264 8.57510829 0 4.28755414 2.48517264 0"></polygon>
                    </g>
                </g>
            </g>
        </g>
    </g>
</svg>
