<?xml version="1.0" encoding="utf-8"?>
<!-- Generator: Adobe Illustrator 19.2.1, SVG Export Plug-In . SVG Version: 6.00 Build 0)  -->
<svg version="1.1" xmlns="http://www.w3.org/2000/svg" xmlns:xlink="http://www.w3.org/1999/xlink" x="0px" y="0px"
	 viewBox="0 0 40 50" style="enable-background:new 0 0 40 50;" xml:space="preserve">
<style type="text/css">
	.st0{display:none;}
	.st1{display:inline;fill:#33C6F4;}
	.st2{fill:#33C6F4;}
	.st3{fill:#FFFFFF;}
	.st4{display:inline;}
	.st5{fill:#EE3424;}
	.st6{display:inline;fill:#EE3424;}
</style>
<g id="Layer_2" class="st0">
	<rect class="st1" width="40" height="50"/>
</g>
<g id="Layer_5">
	<path class="st2" d="M26,31.8H11.6L7.3,42.1c0,0,4,5.2,12.8,5.2s12.3-5.8,12.3-5.8L26,31.8z"/>
</g>
<g id="Fyre_logo">
	<g>
		<path class="st3" d="M18.3,4.3c2.2,1.8,3.5,4.9,3.8,7c0.1,1.1-0.1,2.9-0.3,4.6c-0.4,3.1-0.6,5,0.2,5.9c0.3,0.3,0.7,0.5,1.1,0.6
			c0,0,0.1,0,0.1,0c0.9,0,1.8-0.5,2.3-1.3c0,0,0-0.1,0.1-0.1c0.4,2,0,2.8,0,2.8l0,0l-0.6,1l1.1,0.5c0.4,0.2,0.9,0.3,1.3,0.3
			c1.2,0,2.3-0.7,3-1.9c0,0.6,0.1,1.1,0.1,1.6c0.1,3,0.2,6,2.6,6l0.1,0l0,0c0.3,0,0.8-0.1,1.2-0.7c0.2-0.3,0.4-0.8,0.6-1.3
			c0.6,3.6-0.1,8-1.3,9.9c-1.7,2.8-5.7,7.6-13.7,7.6c-11.4,0-15.6-8.5-16.1-13.1c-0.2-1.4,0.2-2.7,0.7-3.8c0.1,0.8,0.3,1.6,0.7,2.1
			c0.5,0.7,1.3,1,2.2,1c0.2,0,0.4,0,0.6,0c0.8-0.1,1.5-0.5,1.9-1.2c1.3-1.9,0.4-5.5-0.4-9c-0.3-1.4-0.7-2.7-0.7-3.6
			c-0.1-1.3,0.4-2.8,1.2-4c-0.2,0.7-0.2,1.4-0.1,2.1c0.3,1.7,1.5,3,3,3.2c0.2,0,0.3,0,0.5,0c3.2,0,5.2-5.8,5.5-8.9
			C19,9,18.9,6.5,18.3,4.3 M16.5,2.2c1.4,2.9,1.6,6.2,1.2,9.6c-0.3,3.2-2.2,8-4.5,8c-0.1,0-0.2,0-0.3,0c-2.4-0.4-3.7-4.6,0.1-6.9
			c-0.2-0.1-0.5-0.1-0.7-0.1c-2.5,0-4.9,3.5-4.7,6.6c0.3,3.4,3.8,12.1,0.1,12.7c-0.1,0-0.3,0-0.4,0C4,32.1,5.7,26,5.7,26
			s-3.6,3.7-3,7.9C3.2,38,7.1,47.8,19.8,47.8c8.3,0,12.7-4.9,14.6-8.1c1.9-3.2,2.8-12-0.9-15.6c1.2,3.4,0.1,6.2-0.4,6.2c0,0,0,0,0,0
			c-2.9,0-0.2-10.5-3.6-11.9c1.7,2.5,0.2,6.1-2,6.1c-0.3,0-0.6-0.1-0.9-0.2c0,0,1.6-2.4-1.9-8.4c1.4,3,0.3,5.5-1.3,5.5
			c0,0-0.1,0-0.1,0c-1.7-0.1,0.4-7.1,0-10.2C22.7,8.1,20.4,3.4,16.5,2.2L16.5,2.2z"/>
	</g>
	<path class="st3" d="M34.4,39.6c-0.7,1.2-1.8,2.6-3.2,4c-0.1-1.8-1.2-3.3-2.7-3.9c0,0,0,0,0,0c0-1-0.4-2-1-2.7
		c-0.6-0.7-1.5-1.3-2.5-1.4c-1.3-0.2-2.4,0.2-3.3,0.9c-1-1.7-2.8-2.8-4.8-2.8c-3.1,0-5.6,2.5-5.6,5.6c0,0.2,0,0.3,0,0.4
		c-1.7,0.6-2.9,2.3-2.9,4.2c0,0.1,0,0.1,0,0.2C4.5,40.8,3,36.3,2.7,33.8c-0.5-4.1,2.9-7.7,3-7.8c0,0.2-1.7,6.6,2,6.1
		c3.7-0.5,0.2-9.3-0.1-12.7c-0.3-3.4,2.7-7.3,5.4-6.5c-3.8,2.3-2.5,6.4-0.1,6.9c2.4,0.4,4.5-4.6,4.8-7.9c0.4-3.3,0.2-6.6-1.3-9.6
		c3.9,1.2,6.2,5.9,6.6,8.9c0.4,3-1.7,10.1,0,10.2c1.7,0.1,2.8-2.4,1.4-5.5c3.5,6,1.9,8.4,1.9,8.4c2.7,1.2,4.8-3.1,2.9-5.9
		c3.5,1.3,0.7,12,3.7,11.9c0.6,0,1.7-2.9,0.4-6.2C37.1,27.6,36.3,36.4,34.4,39.6z"/>
</g>
<g id="Fyre_logo_Hover" class="st0">
	<g id="Layer_4" class="st4">
		<path class="st3" d="M6.9,41.5c0,0,5,6.2,12.4,5.8s13-4.6,13.3-5.5S20,29.2,20,29.2L9.2,36.4L6.9,41.5z"/>
	</g>
	<g class="st4">
		<path class="st5" d="M18.3,4.3c2.2,1.8,3.5,4.9,3.8,7c0.1,1.1-0.1,2.9-0.3,4.6c-0.4,3.1-0.6,5,0.2,5.9c0.3,0.3,0.7,0.5,1.1,0.6
			c0,0,0.1,0,0.1,0c0.9,0,1.8-0.5,2.3-1.3c0,0,0-0.1,0.1-0.1c0.4,2,0,2.8,0,2.8l0,0l-0.6,1l1.1,0.5c0.4,0.2,0.9,0.3,1.3,0.3
			c1.2,0,2.3-0.7,3-1.9c0,0.6,0.1,1.1,0.1,1.6c0.1,3,0.2,6,2.6,6l0.1,0l0,0c0.3,0,0.8-0.1,1.2-0.7c0.2-0.3,0.4-0.8,0.6-1.3
			c0.6,3.6-0.1,8-1.3,9.9c-1.7,2.8-5.7,7.6-13.7,7.6c-11.4,0-15.6-8.5-16.1-13.1c-0.2-1.4,0.2-2.7,0.7-3.8c0.1,0.8,0.3,1.6,0.7,2.1
			c0.5,0.7,1.3,1,2.2,1c0.2,0,0.4,0,0.6,0c0.8-0.1,1.5-0.5,1.9-1.2c1.3-1.9,0.4-5.5-0.4-9c-0.3-1.4-0.7-2.7-0.7-3.6
			c-0.1-1.3,0.4-2.8,1.2-4c-0.2,0.7-0.2,1.4-0.1,2.1c0.3,1.7,1.5,3,3,3.2c0.2,0,0.3,0,0.5,0c3.2,0,5.2-5.8,5.5-8.9
			C19,9,18.9,6.5,18.3,4.3 M16.5,2.2c1.4,2.9,1.6,6.2,1.2,9.6c-0.3,3.2-2.2,8-4.5,8c-0.1,0-0.2,0-0.3,0c-2.4-0.4-3.7-4.6,0.1-6.9
			c-0.2-0.1-0.5-0.1-0.7-0.1c-2.5,0-4.9,3.5-4.7,6.6c0.3,3.4,3.8,12.1,0.1,12.7c-0.1,0-0.3,0-0.4,0C4,32.1,5.7,26,5.7,26
			s-3.6,3.7-3,7.9C3.2,38,7.1,47.8,19.8,47.8c8.3,0,12.7-4.9,14.6-8.1c1.9-3.2,2.8-12-0.9-15.6c1.2,3.4,0.1,6.2-0.4,6.2c0,0,0,0,0,0
			c-2.9,0-0.2-10.5-3.6-11.9c1.7,2.5,0.2,6.1-2,6.1c-0.3,0-0.6-0.1-0.9-0.2c0,0,1.6-2.4-1.9-8.4c1.4,3,0.3,5.5-1.3,5.5
			c0,0-0.1,0-0.1,0c-1.7-0.1,0.4-7.1,0-10.2C22.7,8.1,20.4,3.4,16.5,2.2L16.5,2.2z"/>
	</g>
	<path class="st6" d="M34.4,39.6c-0.7,1.2-1.8,2.6-3.2,4c-0.1-1.8-1.2-3.3-2.7-3.9c0,0,0,0,0,0c0-1-0.4-2-1-2.7
		c-0.6-0.7-1.5-1.3-2.5-1.4c-1.3-0.2-2.4,0.2-3.3,0.9c-1-1.7-2.8-2.8-4.8-2.8c-3.1,0-5.6,2.5-5.6,5.6c0,0.2,0,0.3,0,0.4
		c-1.7,0.6-2.9,2.3-2.9,4.2c0,0.1,0,0.1,0,0.2C4.5,40.8,3,36.3,2.7,33.8c-0.5-4.1,2.9-7.7,3-7.8c0,0.2-1.7,6.6,2,6.1
		c3.7-0.5,0.2-9.3-0.1-12.7c-0.3-3.4,2.7-7.3,5.4-6.5c-3.8,2.3-2.5,6.4-0.1,6.9c2.4,0.4,4.5-4.6,4.8-7.9c0.4-3.3,0.2-6.6-1.3-9.6
		c3.9,1.2,6.2,5.9,6.6,8.9c0.4,3-1.7,10.1,0,10.2c1.7,0.1,2.8-2.4,1.4-5.5c3.5,6,1.9,8.4,1.9,8.4c2.7,1.2,4.8-3.1,2.9-5.9
		c3.5,1.3,0.7,12,3.7,11.9c0.6,0,1.7-2.9,0.4-6.2C37.1,27.6,36.3,36.4,34.4,39.6z"/>
</g>
</svg>
